<?xml version="1.0" encoding="UTF-8"?>
<svg xmlns="http://www.w3.org/2000/svg" xmlns:xlink="http://www.w3.org/1999/xlink" width="3606" height="3082" viewBox="0 0 3606 3082">
<path fill-rule="nonzero" fill="rgb(0%, 50.193787%, 50.193787%)" fill-opacity="1" d="M 0.4375 0 L 3604.859375 0 C 3605.089844 0 3605.300781 0.25 3605.300781 0.570312 L 3605.300781 3081.425781 C 3605.300781 3081.746094 3605.101562 3082 3604.859375 3082 L 0.4375 3082 C 0.195312 3082 0 3081.746094 0 3081.425781 L 0 0.570312 C 0 0.261719 0.195312 0 0.4375 0 Z M 0.4375 0 "/>
<path fill-rule="nonzero" fill="rgb(100%, 100%, 100%)" fill-opacity="1" d="M 1294.960938 658.5 C 1229.910156 658.5 1176.410156 712.011719 1176.410156 777.058594 L 1176.410156 2158.359375 C 1176.410156 2223.410156 1229.910156 2276.917969 1294.960938 2276.917969 L 2330.929688 2276.917969 C 2395.980469 2276.917969 2449.480469 2223.410156 2449.480469 2158.359375 L 2449.480469 777.058594 C 2449.480469 712.011719 2395.980469 658.5 2330.929688 658.5 Z M 1294.960938 731.179688 L 2330.929688 731.179688 C 2356.96875 731.179688 2376.808594 751.011719 2376.808594 777.058594 L 2376.808594 2158.359375 C 2376.808594 2184.410156 2356.96875 2204.246094 2330.929688 2204.246094 L 1294.960938 2204.246094 C 1268.910156 2204.246094 1249.070312 2184.410156 1249.070312 2158.359375 L 1249.070312 777.058594 C 1249.070312 751.011719 1268.910156 731.179688 1294.960938 731.179688 Z M 1294.960938 731.179688 "/>
<path fill-rule="nonzero" fill="rgb(100%, 96.875%, 21.556091%)" fill-opacity="1" d="M 1294.960938 694.839844 L 2330.929688 694.839844 C 2376.480469 694.839844 2413.148438 731.511719 2413.148438 777.058594 L 2413.148438 2158.359375 C 2413.148438 2203.910156 2376.480469 2240.578125 2330.929688 2240.578125 L 1294.960938 2240.578125 C 1249.410156 2240.578125 1212.730469 2203.910156 1212.730469 2158.359375 L 1212.730469 777.058594 C 1212.730469 731.511719 1249.410156 694.839844 1294.960938 694.839844 Z M 1294.960938 694.839844 "/>
<path fill-rule="nonzero" fill="rgb(100%, 100%, 100%)" fill-opacity="1" d="M 1375.238281 778.28125 C 1317.25 778.28125 1269.429688 826.101562 1269.429688 884.089844 L 1269.429688 2051.320312 C 1269.429688 2109.304688 1317.25 2157.125 1375.238281 2157.125 L 2250.648438 2157.125 C 2308.640625 2157.125 2356.460938 2109.304688 2356.460938 2051.320312 L 2356.460938 884.089844 C 2356.460938 826.101562 2308.640625 778.28125 2250.648438 778.28125 Z M 1375.238281 850.949219 L 2250.648438 850.949219 C 2269.640625 850.949219 2283.789062 865.101562 2283.789062 884.089844 L 2283.789062 2051.320312 C 2283.789062 2070.300781 2269.640625 2084.457031 2250.648438 2084.457031 L 1375.238281 2084.457031 C 1356.25 2084.457031 1342.101562 2070.300781 1342.101562 2051.320312 L 1342.101562 884.089844 C 1342.101562 865.101562 1356.25 850.949219 1375.238281 850.949219 Z M 1375.238281 850.949219 "/>
<path fill-rule="nonzero" fill="rgb(97.65625%, 97.65625%, 97.65625%)" fill-opacity="1" d="M 1375.230469 814.621094 L 2250.648438 814.621094 C 2289.140625 814.621094 2320.128906 845.609375 2320.128906 884.101562 L 2320.128906 2051.320312 C 2320.128906 2089.808594 2289.140625 2120.796875 2250.648438 2120.796875 L 1375.230469 2120.796875 C 1336.738281 2120.796875 1305.761719 2089.808594 1305.761719 2051.320312 L 1305.761719 884.101562 C 1305.761719 845.609375 1336.738281 814.621094 1375.230469 814.621094 Z M 1375.230469 814.621094 "/>
<path fill-rule="nonzero" fill="rgb(100%, 100%, 100%)" fill-opacity="1" d="M 1434.820312 1182.171875 C 1400.800781 1182.171875 1372.101562 1203.988281 1372.101562 1229.851562 C 1372.101562 1255.710938 1400.800781 1277.511719 1434.820312 1277.511719 L 2249.441406 1277.511719 C 2283.460938 1277.511719 2312.160156 1255.710938 2312.160156 1229.851562 C 2312.160156 1203.988281 2283.460938 1182.171875 2249.441406 1182.171875 Z M 1434.820312 1182.171875 "/>
<path fill-rule="nonzero" fill="rgb(83.984375%, 93.75%, 100%)" fill-opacity="1" d="M 1434.820312 1213.859375 L 2249.449219 1213.859375 C 2261.101562 1213.859375 2270.480469 1220.980469 2270.480469 1229.839844 C 2270.480469 1238.699219 2261.101562 1245.828125 2249.449219 1245.828125 L 1434.820312 1245.828125 C 1423.160156 1245.828125 1413.78125 1238.699219 1413.78125 1229.839844 C 1413.78125 1220.980469 1423.160156 1213.859375 1434.820312 1213.859375 Z M 1434.820312 1213.859375 "/>
<path fill-rule="nonzero" fill="rgb(100%, 100%, 100%)" fill-opacity="1" d="M 1434.820312 1315.898438 C 1400.800781 1315.898438 1372.101562 1337.699219 1372.101562 1363.558594 C 1372.101562 1389.421875 1400.800781 1411.21875 1434.820312 1411.21875 L 2249.441406 1411.21875 C 2283.460938 1411.21875 2312.160156 1389.421875 2312.160156 1363.558594 C 2312.160156 1337.699219 2283.460938 1315.898438 2249.441406 1315.898438 Z M 1434.820312 1315.898438 "/>
<path fill-rule="nonzero" fill="rgb(83.984375%, 93.75%, 100%)" fill-opacity="1" d="M 1434.820312 1347.570312 L 2249.449219 1347.570312 C 2261.101562 1347.570312 2270.480469 1354.699219 2270.480469 1363.558594 C 2270.480469 1372.421875 2261.101562 1379.550781 2249.449219 1379.550781 L 1434.820312 1379.550781 C 1423.160156 1379.550781 1413.78125 1372.421875 1413.78125 1363.558594 C 1413.78125 1354.699219 1423.160156 1347.570312 1434.820312 1347.570312 Z M 1434.820312 1347.570312 "/>
<path fill-rule="nonzero" fill="rgb(100%, 100%, 100%)" fill-opacity="1" d="M 1434.820312 1458.328125 C 1400.800781 1458.328125 1372.101562 1480.148438 1372.101562 1506 C 1372.101562 1531.859375 1400.800781 1553.671875 1434.820312 1553.671875 L 2249.441406 1553.671875 C 2283.460938 1553.671875 2312.160156 1531.859375 2312.160156 1506 C 2312.160156 1480.148438 2283.460938 1458.328125 2249.441406 1458.328125 Z M 1434.820312 1458.328125 "/>
<path fill-rule="nonzero" fill="rgb(83.984375%, 93.75%, 100%)" fill-opacity="1" d="M 1434.820312 1490.011719 L 2249.449219 1490.011719 C 2261.101562 1490.011719 2270.480469 1497.140625 2270.480469 1506 C 2270.480469 1514.859375 2261.101562 1521.988281 2249.449219 1521.988281 L 1434.820312 1521.988281 C 1423.160156 1521.988281 1413.78125 1514.859375 1413.78125 1506 C 1413.78125 1497.140625 1423.160156 1490.011719 1434.820312 1490.011719 Z M 1434.820312 1490.011719 "/>
<path fill-rule="nonzero" fill="rgb(100%, 100%, 100%)" fill-opacity="1" d="M 1434.820312 1592.058594 C 1400.800781 1592.058594 1372.101562 1613.859375 1372.101562 1639.71875 C 1372.101562 1665.578125 1400.800781 1687.378906 1434.820312 1687.378906 L 2249.441406 1687.378906 C 2283.460938 1687.378906 2312.160156 1665.578125 2312.160156 1639.71875 C 2312.160156 1613.859375 2283.460938 1592.058594 2249.441406 1592.058594 Z M 1434.820312 1592.058594 "/>
<path fill-rule="nonzero" fill="rgb(83.984375%, 93.75%, 100%)" fill-opacity="1" d="M 1434.820312 1623.730469 L 2249.449219 1623.730469 C 2261.101562 1623.730469 2270.480469 1630.859375 2270.480469 1639.71875 C 2270.480469 1648.570312 2261.101562 1655.710938 2249.449219 1655.710938 L 1434.820312 1655.710938 C 1423.160156 1655.710938 1413.78125 1648.570312 1413.78125 1639.71875 C 1413.78125 1630.859375 1423.160156 1623.730469 1434.820312 1623.730469 Z M 1434.820312 1623.730469 "/>
<path fill-rule="nonzero" fill="rgb(100%, 100%, 100%)" fill-opacity="1" d="M 1539.148438 593.140625 C 1480.019531 593.140625 1431.28125 641.871094 1431.28125 701 C 1431.28125 760.128906 1480.019531 808.871094 1539.148438 808.871094 L 2086.730469 808.871094 C 2145.871094 808.871094 2194.609375 760.128906 2194.609375 701 C 2194.609375 641.871094 2145.871094 593.140625 2086.730469 593.140625 Z M 1539.148438 665.808594 L 2086.730469 665.808594 C 2106.859375 665.808594 2121.929688 680.878906 2121.929688 701 C 2121.929688 721.128906 2106.859375 736.199219 2086.730469 736.199219 L 1539.148438 736.199219 C 1519.019531 736.199219 1503.949219 721.128906 1503.949219 701 C 1503.949219 680.878906 1519.019531 665.808594 1539.148438 665.808594 Z M 1539.148438 665.808594 "/>
<path fill-rule="nonzero" fill="rgb(42.358398%, 63.084412%, 76.171875%)" fill-opacity="1" d="M 1539.148438 629.480469 L 2086.730469 629.480469 C 2126.359375 629.480469 2158.269531 661.378906 2158.269531 701.011719 C 2158.269531 740.640625 2126.359375 772.539062 2086.730469 772.539062 L 1539.148438 772.539062 C 1499.519531 772.539062 1467.621094 740.640625 1467.621094 701.011719 C 1467.621094 661.378906 1499.519531 629.480469 1539.148438 629.480469 Z M 1539.148438 629.480469 "/>
<path fill-rule="nonzero" fill="rgb(100%, 100%, 100%)" fill-opacity="1" d="M 1584.78125 605.058594 C 1532.25 605.058594 1488.828125 648.480469 1488.828125 701 C 1488.828125 753.53125 1532.25 796.949219 1584.78125 796.949219 L 2041.109375 796.949219 C 2093.628906 796.949219 2137.050781 753.53125 2137.050781 701 C 2137.050781 648.480469 2093.628906 605.058594 2041.109375 605.058594 Z M 1584.78125 677.730469 L 2041.109375 677.730469 C 2054.628906 677.730469 2064.378906 687.480469 2064.378906 701 C 2064.378906 714.53125 2054.628906 724.28125 2041.109375 724.28125 L 1584.78125 724.28125 C 1571.261719 724.28125 1561.5 714.53125 1561.5 701 C 1561.5 687.480469 1571.261719 677.730469 1584.78125 677.730469 Z M 1584.78125 677.730469 "/>
<path fill-rule="nonzero" fill="rgb(65.818787%, 81.639099%, 100%)" fill-opacity="1" d="M 1584.78125 641.398438 L 2041.101562 641.398438 C 2074.128906 641.398438 2100.710938 667.980469 2100.710938 701.011719 C 2100.710938 734.03125 2074.128906 760.621094 2041.101562 760.621094 L 1584.78125 760.621094 C 1551.761719 760.621094 1525.171875 734.03125 1525.171875 701.011719 C 1525.171875 667.980469 1551.761719 641.398438 1584.78125 641.398438 Z M 1584.78125 641.398438 "/>
<path fill-rule="nonzero" fill="rgb(100%, 100%, 100%)" fill-opacity="1" d="M 1579.5 619.589844 C 1556.359375 619.589844 1536.609375 639.351562 1536.609375 662.480469 C 1536.609375 685.621094 1556.359375 705.371094 1579.5 705.371094 L 1805.109375 705.371094 C 1828.25 705.371094 1848.011719 685.621094 1848.011719 662.480469 C 1848.011719 639.351562 1828.25 619.589844 1805.109375 619.589844 Z M 1579.5 619.589844 "/>
<path fill-rule="nonzero" fill="rgb(77.734375%, 87.889099%, 100%)" fill-opacity="1" d="M 1579.488281 655.929688 L 1805.121094 655.929688 C 1808.75 655.929688 1811.671875 658.859375 1811.671875 662.488281 C 1811.671875 666.121094 1808.75 669.050781 1805.121094 669.050781 L 1579.488281 669.050781 C 1575.859375 669.050781 1572.929688 666.121094 1572.929688 662.488281 C 1572.929688 658.859375 1575.859375 655.929688 1579.488281 655.929688 Z M 1579.488281 655.929688 "/>
<path fill-rule="nonzero" fill="rgb(100%, 100%, 100%)" fill-opacity="1" d="M 1854.191406 619.589844 C 1831.058594 619.589844 1811.300781 639.351562 1811.300781 662.480469 C 1811.300781 685.621094 1831.058594 705.371094 1854.191406 705.371094 L 1957.730469 705.371094 C 1980.871094 705.371094 2000.628906 685.621094 2000.628906 662.480469 C 2000.628906 639.351562 1980.871094 619.589844 1957.730469 619.589844 Z M 1854.191406 619.589844 "/>
<path fill-rule="nonzero" fill="rgb(77.734375%, 87.889099%, 100%)" fill-opacity="1" d="M 1854.191406 655.929688 L 1957.730469 655.929688 C 1961.359375 655.929688 1964.289062 658.859375 1964.289062 662.488281 C 1964.289062 666.121094 1961.359375 669.050781 1957.730469 669.050781 L 1854.191406 669.050781 C 1850.558594 669.050781 1847.640625 666.121094 1847.640625 662.488281 C 1847.640625 658.859375 1850.558594 655.929688 1854.191406 655.929688 Z M 1854.191406 655.929688 "/>
<path fill-rule="nonzero" fill="rgb(100%, 100%, 100%)" fill-opacity="1" d="M 2011.890625 619.589844 C 1988.761719 619.589844 1969 639.351562 1969 662.480469 C 1969 685.621094 1988.761719 705.371094 2011.890625 705.371094 L 2057.289062 705.371094 C 2080.421875 705.371094 2100.179688 685.621094 2100.179688 662.480469 C 2100.179688 639.351562 2080.421875 619.589844 2057.289062 619.589844 Z M 2034.589844 644.359375 C 2038.761719 649.5 2041.671875 655.679688 2041.671875 662.480469 C 2041.671875 669.28125 2038.761719 675.480469 2034.589844 680.621094 C 2030.421875 675.480469 2027.511719 669.28125 2027.511719 662.480469 C 2027.511719 655.679688 2030.421875 649.5 2034.589844 644.359375 Z M 2034.589844 644.359375 "/>
<path fill-rule="nonzero" fill="rgb(77.734375%, 87.889099%, 100%)" fill-opacity="1" d="M 2011.898438 655.929688 L 2057.289062 655.929688 C 2060.929688 655.929688 2063.851562 658.859375 2063.851562 662.488281 C 2063.851562 666.121094 2060.929688 669.050781 2057.289062 669.050781 L 2011.898438 669.050781 C 2008.269531 669.050781 2005.339844 666.121094 2005.339844 662.488281 C 2005.339844 658.859375 2008.269531 655.929688 2011.898438 655.929688 Z M 2011.898438 655.929688 "/>
<path fill-rule="nonzero" fill="rgb(100%, 100%, 100%)" fill-opacity="1" d="M 1499.539062 922.828125 C 1448 922.828125 1405.390625 965.441406 1405.390625 1016.980469 L 1405.390625 1039.960938 C 1405.390625 1091.5 1448 1134.121094 1499.539062 1134.121094 L 2126.351562 1134.121094 C 2177.878906 1134.121094 2220.5 1091.5 2220.5 1039.960938 L 2220.5 1016.980469 C 2220.5 965.441406 2177.878906 922.828125 2126.351562 922.828125 Z M 1499.539062 995.5 L 2126.351562 995.5 C 2138.878906 995.5 2147.820312 1004.441406 2147.820312 1016.980469 L 2147.820312 1039.960938 C 2147.820312 1052.488281 2138.878906 1061.449219 2126.351562 1061.449219 L 1499.539062 1061.449219 C 1487 1061.449219 1478.058594 1052.488281 1478.058594 1039.960938 L 1478.058594 1016.980469 C 1478.058594 1004.441406 1487 995.5 1499.539062 995.5 Z M 1499.539062 995.5 "/>
<path fill-rule="nonzero" fill="rgb(83.984375%, 93.75%, 100%)" fill-opacity="1" d="M 1499.539062 959.160156 L 2126.351562 959.160156 C 2158.378906 959.160156 2184.160156 984.949219 2184.160156 1016.980469 L 2184.160156 1039.96875 C 2184.160156 1072 2158.378906 1097.789062 2126.351562 1097.789062 L 1499.539062 1097.789062 C 1467.511719 1097.789062 1441.71875 1072 1441.71875 1039.96875 L 1441.71875 1016.980469 C 1441.71875 984.949219 1467.511719 959.160156 1499.539062 959.160156 Z M 1499.539062 959.160156 "/>
<path fill-rule="nonzero" fill="rgb(100%, 100%, 100%)" fill-opacity="1" d="M 1623.789062 948.929688 C 1614.308594 948.929688 1604.441406 950.601562 1595.210938 954.421875 C 1594.71875 954.621094 1594.28125 955.039062 1593.800781 955.261719 C 1590.128906 952.898438 1586.070312 951.21875 1581.820312 950.300781 L 1568.128906 950.300781 C 1560.089844 950.808594 1552.441406 953.96875 1546.390625 959.300781 C 1541.679688 954.851562 1535.871094 951.75 1529.558594 950.300781 L 1515.140625 950.300781 C 1512.519531 951.058594 1510 952.101562 1507.609375 953.421875 C 1505.21875 952.101562 1502.691406 951.058594 1500.070312 950.300781 L 1485.949219 950.300781 C 1465.878906 950.300781 1449.609375 966.570312 1449.609375 986.628906 L 1449.609375 1066.789062 C 1449.960938 1067.75 1450.359375 1068.710938 1450.789062 1069.640625 L 1450.789062 1070.320312 C 1450.789062 1090.378906 1467.058594 1106.640625 1487.121094 1106.648438 L 1501.25 1106.648438 C 1503.871094 1105.890625 1506.390625 1104.851562 1508.78125 1103.53125 C 1511.171875 1104.851562 1513.691406 1105.890625 1516.320312 1106.648438 L 1530.011719 1106.648438 C 1538.058594 1106.140625 1545.691406 1102.96875 1551.738281 1097.640625 C 1556.449219 1102.089844 1562.269531 1105.199219 1568.589844 1106.648438 L 1583 1106.648438 C 1587.238281 1105.730469 1591.28125 1104.050781 1594.929688 1101.699219 C 1595.019531 1101.738281 1595.089844 1101.820312 1595.171875 1101.851562 C 1595.199219 1101.871094 1595.230469 1101.878906 1595.261719 1101.898438 C 1606.128906 1106.570312 1617.078125 1108.011719 1627.859375 1108.011719 C 1627.851562 1108.011719 1627.898438 1108.019531 1628.019531 1108.011719 C 1628.019531 1108.011719 1628.058594 1108.011719 1628.058594 1108.011719 C 1628.621094 1108.011719 1628.988281 1108 1629.449219 1107.988281 C 1630.058594 1108 1630.640625 1108.011719 1631.390625 1108.011719 C 1641.511719 1108.011719 1652.101562 1106.078125 1661.878906 1101.621094 C 1661.921875 1101.609375 1661.96875 1101.589844 1662 1101.570312 C 1663.621094 1100.820312 1665.089844 1099.5 1666.691406 1098.589844 C 1667.210938 1098.898438 1667.609375 1099.460938 1668.128906 1099.738281 C 1679.921875 1106.128906 1692.179688 1108.011719 1703.871094 1108.011719 C 1703.859375 1108.011719 1703.910156 1108.011719 1704.019531 1108.011719 C 1704.03125 1108.011719 1704.070312 1108.011719 1704.070312 1108.011719 C 1704.679688 1108.011719 1705.179688 1108 1705.71875 1107.988281 C 1706.269531 1108 1706.808594 1108.011719 1707.398438 1108.011719 C 1717.640625 1108.011719 1728.429688 1105.660156 1738.839844 1100.769531 C 1743.101562 1103.71875 1747.929688 1105.71875 1753.019531 1106.648438 L 1767.160156 1106.648438 C 1776.351562 1106.480469 1785.140625 1102.839844 1791.761719 1096.449219 C 1796.800781 1101.621094 1803.269531 1105.171875 1810.339844 1106.648438 L 1827.199219 1106.648438 C 1828.070312 1106.441406 1828.929688 1106.210938 1829.789062 1105.941406 C 1830.238281 1106.179688 1830.691406 1106.421875 1831.140625 1106.648438 L 1845.929688 1106.648438 C 1855.03125 1106.191406 1863.628906 1102.339844 1870.019531 1095.839844 C 1876.398438 1102.328125 1884.988281 1106.179688 1894.078125 1106.648438 L 1909.691406 1106.648438 C 1910.710938 1106.441406 1911.710938 1106.191406 1912.710938 1105.890625 C 1913.308594 1106.160156 1913.921875 1106.410156 1914.53125 1106.648438 L 1928.230469 1106.648438 C 1936.269531 1106.140625 1943.910156 1102.96875 1949.960938 1097.640625 C 1954.671875 1102.089844 1960.488281 1105.199219 1966.808594 1106.648438 L 1981.199219 1106.648438 C 1986.839844 1105.75 1992.191406 1103.53125 1996.820312 1100.179688 C 2007.660156 1105.320312 2019.089844 1108.011719 2030.121094 1108.011719 C 2030.109375 1108.011719 2030.148438 1108.011719 2030.28125 1108.011719 C 2030.289062 1108.011719 2030.320312 1108.011719 2030.320312 1108.011719 C 2030.808594 1108.011719 2031.269531 1108 2031.75 1107.988281 C 2032.359375 1108 2032.960938 1108.011719 2033.640625 1108.011719 C 2043.429688 1108.011719 2053.410156 1105.160156 2062.890625 1100.96875 C 2067.019531 1103.789062 2071.691406 1105.71875 2076.601562 1106.648438 L 2139.941406 1106.648438 C 2160 1106.648438 2176.269531 1090.390625 2176.28125 1070.320312 L 2176.28125 1060.859375 C 2175.929688 1059.890625 2175.53125 1058.929688 2175.101562 1058 L 2175.101562 1057.328125 C 2174.21875 1051.421875 2171.890625 1045.808594 2168.328125 1041.011719 C 2169.628906 1038.648438 2170.660156 1036.160156 2171.410156 1033.570312 L 2171.410156 1024.171875 C 2171.058594 1023.199219 2170.671875 1022.25 2170.230469 1021.308594 L 2170.230469 1020.640625 C 2169.628906 1018.769531 2168.878906 1016.941406 2167.96875 1015.179688 C 2171.308594 1010.570312 2173.519531 1005.238281 2174.421875 999.621094 L 2174.421875 990.160156 C 2174.070312 989.191406 2173.671875 988.230469 2173.238281 987.300781 L 2173.238281 986.628906 C 2173.230469 966.570312 2156.96875 950.308594 2136.910156 950.300781 L 2075.421875 950.300781 C 2070.570312 951.230469 2065.949219 953.140625 2061.859375 955.910156 C 2052.359375 951.71875 2042.359375 948.929688 2032.628906 948.929688 C 2032 948.929688 2031.519531 948.949219 2030.980469 948.960938 C 2030.429688 948.949219 2029.949219 948.929688 2029.320312 948.929688 C 2029.320312 948.929688 2029.28125 948.929688 2029.269531 948.929688 C 2029.140625 948.929688 2029.089844 948.929688 2029.109375 948.929688 C 2017.769531 948.929688 2006.261719 951.851562 1995.839844 956.839844 C 1991.171875 953.429688 1985.75 951.191406 1980.039062 950.300781 L 1966.339844 950.300781 C 1958.300781 950.808594 1950.660156 953.96875 1944.609375 959.300781 C 1939.890625 954.851562 1934.078125 951.738281 1927.761719 950.300781 L 1913.351562 950.300781 C 1907.269531 951.160156 1901.5 953.550781 1896.589844 957.238281 C 1890.511719 952.820312 1883.21875 950.398438 1875.699219 950.300781 L 1860.75 950.300781 C 1850.589844 950.898438 1841.128906 955.730469 1834.699219 963.628906 C 1830.320312 960.050781 1825.480469 956.941406 1820.308594 954.949219 C 1809.300781 950.671875 1800.46875 950.300781 1790.910156 950.300781 L 1751.851562 950.300781 C 1749.371094 951.03125 1746.980469 952.019531 1744.710938 953.261719 C 1742.429688 952.019531 1740.03125 951.03125 1737.550781 950.300781 L 1723.410156 950.300781 C 1716.398438 951.03125 1709.75 953.78125 1704.269531 958.230469 C 1698.789062 953.78125 1692.128906 951.03125 1685.109375 950.300781 L 1670.980469 950.300781 C 1666.511719 951.230469 1662.261719 952.988281 1658.441406 955.488281 C 1657.980469 955.28125 1657.570312 954.890625 1657.109375 954.691406 C 1647.359375 950.558594 1637.140625 948.929688 1627.320312 948.929688 C 1626.699219 948.929688 1626.199219 948.949219 1625.648438 948.960938 C 1625.109375 948.949219 1624.621094 948.929688 1623.988281 948.929688 L 1623.96875 948.929688 C 1623.839844 948.929688 1623.789062 948.929688 1623.800781 948.929688 Z M 1826.050781 975.429688 L 1826.109375 975.480469 L 1826.109375 975.5 C 1826.078125 975.480469 1826.070312 975.441406 1826.050781 975.429688 Z M 1568.648438 976.101562 C 1568.640625 976.121094 1568.628906 976.148438 1568.609375 976.171875 C 1568.601562 976.199219 1568.570312 976.21875 1568.550781 976.25 Z M 1568.648438 976.101562 "/>
<path fill-rule="nonzero" fill="rgb(0%, 51.367188%, 82.8125%)" fill-opacity="1" d="M 1623.789062 985.269531 C 1618.398438 985.269531 1613.5 986.179688 1609.078125 988 C 1604.671875 989.820312 1601.320312 992.5 1599.019531 996.03125 C 1596.730469 999.53125 1595.578125 1003.308594 1595.578125 1007.359375 C 1595.578125 1010.179688 1596.128906 1012.808594 1597.230469 1015.21875 C 1597.679688 1017.230469 1598.441406 1019.121094 1599.539062 1020.890625 C 1601.441406 1023.839844 1604.300781 1026.320312 1608.128906 1028.320312 C 1611.078125 1029.890625 1616.238281 1031.570312 1623.601562 1033.351562 C 1630.960938 1035.101562 1635.71875 1036.390625 1637.871094 1037.230469 C 1641.230469 1038.511719 1643.628906 1040.101562 1645.089844 1041.988281 C 1645.429688 1042.421875 1645.71875 1042.878906 1645.96875 1043.351562 C 1646.050781 1043.890625 1646.101562 1044.449219 1646.101562 1045.03125 C 1646.101562 1047.511719 1645.328125 1049.808594 1643.808594 1051.921875 C 1642.308594 1054 1640.019531 1055.640625 1636.910156 1056.839844 C 1634.28125 1057.871094 1631.289062 1058.449219 1627.960938 1058.609375 C 1624.101562 1058.429688 1620.589844 1057.660156 1617.421875 1056.289062 C 1613.769531 1054.691406 1611.070312 1052.609375 1609.320312 1050.058594 C 1608.78125 1049.238281 1608.320312 1048.320312 1607.910156 1047.359375 C 1607.621094 1046.199219 1607.378906 1045 1607.21875 1043.691406 L 1606.699219 1043.730469 C 1606.429688 1042.609375 1606.191406 1041.429688 1606.039062 1040.160156 L 1602.761719 1040.449219 C 1602.75 1040.359375 1602.738281 1040.261719 1602.730469 1040.160156 L 1602.519531 1040.179688 C 1602.519531 1040.179688 1602.519531 1040.171875 1602.519531 1040.160156 L 1592.519531 1041.039062 C 1592.609375 1044.640625 1593.320312 1047.988281 1594.609375 1051.109375 C 1595.328125 1053.910156 1596.480469 1056.550781 1598.070312 1059 C 1600.878906 1063.21875 1604.71875 1066.398438 1609.601562 1068.511719 C 1614.519531 1070.621094 1620.609375 1071.679688 1627.871094 1071.679688 C 1627.890625 1071.679688 1627.929688 1071.679688 1627.949219 1071.679688 C 1627.988281 1071.679688 1628.03125 1071.679688 1628.070312 1071.679688 C 1628.558594 1071.679688 1629.050781 1071.671875 1629.539062 1071.660156 C 1630.140625 1071.671875 1630.761719 1071.679688 1631.390625 1071.679688 C 1637.109375 1071.679688 1642.25 1070.640625 1646.808594 1068.570312 C 1651.398438 1066.449219 1654.921875 1063.519531 1657.359375 1059.761719 C 1659.808594 1055.96875 1661.019531 1051.941406 1661.019531 1047.679688 C 1661.019531 1044.589844 1660.441406 1041.78125 1659.300781 1039.21875 C 1658.769531 1036.890625 1657.839844 1034.738281 1656.519531 1032.78125 C 1654.289062 1029.460938 1650.851562 1026.730469 1646.179688 1024.578125 C 1642.96875 1023.121094 1637.050781 1021.429688 1628.410156 1019.5 C 1619.808594 1017.53125 1614.480469 1015.609375 1612.441406 1013.75 C 1611.691406 1013.078125 1611.070312 1012.328125 1610.589844 1011.519531 C 1610.539062 1011.078125 1610.5 1010.640625 1610.5 1010.171875 C 1610.5 1006.851562 1611.960938 1004.03125 1614.878906 1001.691406 C 1617.539062 999.558594 1621.609375 998.390625 1627.078125 998.179688 C 1632.410156 998.390625 1636.5 999.679688 1639.351562 1002.019531 C 1641.019531 1003.390625 1642.320312 1005.109375 1643.261719 1007.171875 C 1643.46875 1008.058594 1643.640625 1008.988281 1643.75 1009.980469 L 1643.949219 1009.960938 C 1643.949219 1009.96875 1643.949219 1009.980469 1643.949219 1009.980469 L 1644.269531 1009.960938 C 1644.570312 1011.058594 1644.789062 1012.25 1644.929688 1013.5 L 1645.128906 1013.488281 C 1645.128906 1013.5 1645.128906 1013.5 1645.128906 1013.5 L 1648.421875 1013.25 C 1648.429688 1013.339844 1648.441406 1013.421875 1648.449219 1013.5 L 1658.621094 1012.738281 C 1658.5 1009.570312 1657.851562 1006.640625 1656.699219 1003.921875 C 1656.058594 1001.289062 1654.988281 998.839844 1653.511719 996.578125 C 1651.058594 992.871094 1647.558594 990.058594 1643.011719 988.160156 C 1638.488281 986.230469 1633.261719 985.269531 1627.320312 985.269531 C 1626.769531 985.269531 1626.238281 985.28125 1625.699219 985.300781 C 1625.140625 985.28125 1624.570312 985.269531 1623.988281 985.269531 C 1623.960938 985.269531 1623.929688 985.269531 1623.898438 985.269531 C 1623.859375 985.269531 1623.828125 985.269531 1623.789062 985.269531 Z M 2029.109375 985.269531 C 2022.039062 985.269531 2015.550781 986.890625 2009.640625 990.128906 C 2003.769531 993.339844 1999.230469 998.058594 1996.03125 1004.289062 C 1992.859375 1010.488281 1991.269531 1017.761719 1991.269531 1026.109375 C 1991.269531 1032.988281 1992.410156 1039.46875 1994.679688 1045.558594 C 1995.238281 1047.449219 1995.890625 1049.308594 1996.660156 1051.121094 C 1999.5 1057.789062 2003.621094 1062.890625 2009.011719 1066.429688 C 2014.441406 1069.929688 2021.480469 1071.679688 2030.121094 1071.679688 C 2030.148438 1071.679688 2030.179688 1071.679688 2030.199219 1071.679688 C 2030.25 1071.679688 2030.28125 1071.679688 2030.320312 1071.679688 C 2030.839844 1071.679688 2031.359375 1071.671875 2031.871094 1071.660156 C 2032.449219 1071.671875 2033.039062 1071.679688 2033.640625 1071.679688 C 2041.988281 1071.679688 2049.039062 1069.398438 2054.808594 1064.851562 C 2060.601562 1060.25 2064.609375 1053.601562 2066.828125 1044.890625 L 2064.789062 1044.371094 C 2065.101562 1043.398438 2065.390625 1042.398438 2065.660156 1041.371094 L 2055.050781 1038.691406 C 2054.988281 1038.960938 2054.929688 1039.210938 2054.859375 1039.480469 L 2051.730469 1038.691406 C 2051.730469 1038.699219 2051.71875 1038.71875 2051.71875 1038.730469 L 2051.53125 1038.691406 C 2050.070312 1045.429688 2047.28125 1050.519531 2043.160156 1053.941406 C 2039.449219 1057.019531 2035.011719 1058.710938 2029.828125 1059.03125 C 2025.609375 1058.761719 2021.660156 1057.519531 2017.980469 1055.308594 C 2013.828125 1052.820312 2010.75 1049.070312 2008.75 1044.078125 C 2007.53125 1039.78125 2006.910156 1034.949219 2006.910156 1029.578125 C 2006.910156 1024.289062 2007.738281 1019.171875 2009.421875 1014.210938 C 2011.089844 1009.21875 2014 1005.25 2018.109375 1002.300781 C 2021.851562 999.640625 2026.390625 998.179688 2031.738281 997.910156 C 2036.359375 998.171875 2040.25 999.480469 2043.410156 1001.859375 C 2046.941406 1004.519531 2049.640625 1008.769531 2051.5 1014.601562 L 2051.679688 1014.558594 C 2051.691406 1014.570312 2051.699219 1014.578125 2051.699219 1014.601562 L 2054.78125 1013.871094 C 2054.859375 1014.109375 2054.949219 1014.351562 2055.019531 1014.601562 L 2065.46875 1012.140625 C 2065.109375 1010.921875 2064.699219 1009.75 2064.25 1008.621094 L 2064.289062 1008.609375 C 2062.140625 1001.210938 2058.328125 995.46875 2052.859375 991.390625 C 2047.398438 987.308594 2040.648438 985.269531 2032.628906 985.269531 C 2032.070312 985.269531 2031.519531 985.28125 2030.980469 985.300781 C 2030.429688 985.28125 2029.871094 985.269531 2029.308594 985.269531 C 2029.269531 985.269531 2029.230469 985.269531 2029.199219 985.269531 C 2029.171875 985.269531 2029.140625 985.269531 2029.109375 985.269531 Z M 1485.941406 986.628906 L 1485.941406 1066.789062 L 1487.121094 1066.789062 L 1487.121094 1070.308594 L 1501.25 1070.308594 L 1501.25 990.160156 L 1500.078125 990.160156 L 1500.078125 986.628906 Z M 1515.140625 986.628906 L 1515.140625 1066.789062 L 1516.320312 1066.789062 L 1516.320312 1070.308594 L 1530.019531 1070.308594 L 1530.019531 1012.601562 L 1568.589844 1070.308594 L 1583 1070.308594 L 1583 990.160156 L 1581.820312 990.160156 L 1581.820312 986.628906 L 1568.128906 986.628906 L 1568.128906 1044.300781 L 1529.550781 986.628906 Z M 1670.980469 986.628906 L 1670.980469 1032.941406 C 1670.980469 1041.320312 1671.980469 1047.960938 1673.96875 1052.859375 C 1674.328125 1054.199219 1674.738281 1055.449219 1675.21875 1056.589844 C 1677.261719 1061.480469 1680.671875 1065.210938 1685.441406 1067.800781 C 1690.21875 1070.390625 1696.359375 1071.679688 1703.871094 1071.679688 C 1703.898438 1071.679688 1703.929688 1071.679688 1703.960938 1071.679688 C 1704 1071.679688 1704.03125 1071.679688 1704.070312 1071.679688 C 1704.621094 1071.679688 1705.160156 1071.671875 1705.691406 1071.660156 C 1706.25 1071.671875 1706.820312 1071.679688 1707.390625 1071.679688 C 1715.121094 1071.679688 1721.359375 1070.210938 1726.089844 1067.25 C 1730.871094 1064.269531 1734.160156 1060.398438 1735.988281 1055.660156 C 1737.808594 1050.921875 1738.71875 1044.519531 1738.71875 1036.46875 L 1738.71875 990.160156 L 1737.550781 990.160156 L 1737.550781 986.628906 L 1723.410156 986.628906 L 1723.410156 1032.890625 C 1723.410156 1042.949219 1721.761719 1049.75 1718.441406 1053.289062 C 1715.398438 1056.53125 1710.46875 1058.28125 1703.648438 1058.550781 C 1699.800781 1058.359375 1696.480469 1057.480469 1693.691406 1055.910156 C 1690.828125 1054.28125 1688.738281 1052.019531 1687.398438 1049.140625 C 1686.660156 1045.960938 1686.289062 1041.710938 1686.289062 1036.410156 L 1686.289062 990.160156 L 1685.109375 990.160156 L 1685.109375 986.628906 Z M 1751.851562 986.628906 L 1751.851562 1066.789062 L 1753.019531 1066.789062 L 1753.019531 1070.308594 L 1767.160156 1070.308594 L 1767.160156 1034.71875 L 1775.929688 1034.71875 C 1778.671875 1034.71875 1780.640625 1034.851562 1781.839844 1035.101562 C 1783.480469 1035.5 1785.078125 1036.210938 1786.648438 1037.230469 C 1788.25 1038.25 1790.058594 1040.039062 1792.070312 1042.589844 C 1794.070312 1045.140625 1796.621094 1048.828125 1799.71875 1053.640625 L 1810.328125 1070.308594 L 1827.191406 1070.308594 L 1824.941406 1066.789062 L 1826.019531 1066.789062 L 1812.078125 1044.980469 C 1809.308594 1040.710938 1806.371094 1037.160156 1803.269531 1034.308594 C 1802.851562 1033.929688 1802.351562 1033.550781 1801.808594 1033.160156 C 1807.609375 1031.878906 1812.058594 1029.640625 1815.109375 1026.410156 C 1818.789062 1022.511719 1820.628906 1017.710938 1820.628906 1012.03125 C 1820.628906 1008.730469 1820.011719 1005.640625 1818.769531 1002.769531 C 1818.21875 1000.539062 1817.339844 998.421875 1816.121094 996.421875 C 1813.898438 992.769531 1810.929688 990.238281 1807.210938 988.820312 C 1803.488281 987.359375 1798.058594 986.628906 1790.910156 986.628906 Z M 1860.75 986.628906 L 1829.96875 1066.789062 L 1832.5 1066.789062 L 1831.140625 1070.308594 L 1845.929688 1070.308594 L 1854.730469 1046.039062 L 1884.730469 1046.039062 L 1894.078125 1070.308594 L 1909.679688 1070.308594 L 1908.238281 1066.789062 L 1908.511719 1066.789062 L 1875.699219 986.628906 Z M 1913.351562 986.628906 L 1913.351562 1066.789062 L 1914.53125 1066.789062 L 1914.53125 1070.308594 L 1928.21875 1070.308594 L 1928.21875 1012.601562 L 1966.800781 1070.308594 L 1981.210938 1070.308594 L 1981.210938 990.160156 L 1980.03125 990.160156 L 1980.03125 986.628906 L 1966.339844 986.628906 L 1966.339844 1044.300781 L 1927.761719 986.628906 Z M 2075.421875 986.628906 L 2075.421875 1066.789062 L 2076.601562 1066.789062 L 2076.601562 1070.308594 L 2139.941406 1070.308594 L 2139.941406 1060.859375 L 2138.761719 1060.859375 L 2138.761719 1057.328125 L 2090.730469 1057.328125 L 2090.730469 1033.570312 L 2135.070312 1033.570312 L 2135.070312 1024.171875 L 2133.898438 1024.171875 L 2133.898438 1020.640625 L 2090.730469 1020.640625 L 2090.730469 999.609375 L 2138.078125 999.609375 L 2138.078125 990.160156 L 2136.910156 990.160156 L 2136.910156 986.628906 Z M 1767.160156 999.019531 L 1789 999.019531 C 1794.941406 999.019531 1799.28125 1000.230469 1802.019531 1002.679688 C 1803.199219 1003.71875 1804.121094 1004.898438 1804.800781 1006.191406 C 1804.921875 1006.929688 1805 1007.699219 1805 1008.5 C 1805 1011.089844 1804.289062 1013.5 1802.859375 1015.71875 C 1801.441406 1017.910156 1799.359375 1019.511719 1796.628906 1020.53125 C 1793.890625 1021.519531 1790.109375 1022.011719 1785.261719 1022.011719 L 1767.160156 1022.011719 Z M 1869.410156 1005 C 1870.429688 1008.03125 1871.648438 1011.421875 1873.078125 1015.199219 L 1880.121094 1033.871094 L 1859.121094 1033.871094 L 1866.601562 1013.890625 C 1867.679688 1010.941406 1868.621094 1007.980469 1869.410156 1005 Z M 1869.410156 1005 "/>
<path fill-rule="nonzero" fill="rgb(30.979919%, 72.459412%, 100%)" fill-opacity="1" d="M 2351.480469 1289.699219 L 2119.511719 1367.460938 C 2113.960938 1397.75 2118.078125 1538.378906 2145.28125 1634.25 C 2167.410156 1712.261719 2223.589844 1787.269531 2351.480469 1840.410156 C 2479.378906 1787.269531 2535.558594 1712.261719 2557.691406 1634.25 C 2584.890625 1538.378906 2589.011719 1397.75 2583.460938 1367.460938 Z M 2351.480469 1289.699219 "/>
<path fill-rule="nonzero" fill="rgb(100%, 100%, 100%)" fill-opacity="1" d="M 2339.929688 1255.25 L 2107.949219 1333.011719 C 2095.421875 1337.21875 2086.160156 1347.910156 2083.769531 1360.921875 C 2078.910156 1387.429688 2080.019531 1426.351562 2083.878906 1478.929688 C 2087.738281 1531.5 2095.578125 1592.210938 2110.320312 1644.179688 C 2135.199219 1731.828125 2201.941406 1817.609375 2337.539062 1873.960938 C 2346.46875 1877.671875 2356.5 1877.671875 2365.429688 1873.960938 C 2501.03125 1817.609375 2567.769531 1731.828125 2592.640625 1644.179688 C 2607.378906 1592.210938 2615.230469 1531.5 2619.089844 1478.929688 C 2622.949219 1426.351562 2624.058594 1387.429688 2619.210938 1360.921875 C 2616.820312 1347.910156 2607.558594 1337.210938 2595.011719 1333.011719 L 2363.039062 1255.25 C 2355.539062 1252.730469 2347.429688 1252.730469 2339.929688 1255.25 Z M 2351.488281 1328.039062 L 2548.359375 1394.019531 C 2548.898438 1412.191406 2549.128906 1439.390625 2546.621094 1473.609375 C 2543.011719 1522.890625 2535.199219 1580.429688 2522.730469 1624.339844 C 2504.148438 1689.839844 2460.75 1751.390625 2351.488281 1800.371094 C 2242.21875 1751.390625 2198.808594 1689.839844 2180.230469 1624.339844 C 2167.769531 1580.429688 2159.960938 1522.890625 2156.339844 1473.609375 C 2153.828125 1439.390625 2154.070312 1412.191406 2154.601562 1394.019531 Z M 2351.488281 1328.039062 "/>
<path fill-rule="nonzero" fill="rgb(0%, 56.054688%, 89.84375%)" fill-opacity="1" d="M 2352.609375 1779.550781 C 2451.660156 1738.089844 2495.261719 1679.75 2512.46875 1619.078125 C 2533.710938 1544.230469 2536.929688 1434.429688 2532.589844 1410.789062 L 2352.609375 1350.460938 Z M 2352.609375 1779.550781 "/>
<path fill-rule="nonzero" fill="rgb(100%, 100%, 100%)" fill-opacity="1" d="M 2364.160156 1316.011719 C 2353.078125 1312.300781 2340.890625 1314.148438 2331.398438 1320.96875 C 2321.910156 1327.800781 2316.289062 1338.769531 2316.28125 1350.460938 L 2316.28125 1779.550781 C 2316.289062 1791.710938 2322.371094 1803.058594 2332.488281 1809.789062 C 2342.609375 1816.519531 2355.429688 1817.75 2366.640625 1813.058594 C 2473.378906 1768.378906 2527.488281 1699.28125 2547.429688 1629 C 2559.191406 1587.550781 2565.320312 1539.800781 2568.359375 1498.390625 C 2571.398438 1456.980469 2572.570312 1427.441406 2568.328125 1404.25 C 2565.949219 1391.230469 2556.679688 1380.550781 2544.140625 1376.339844 Z M 2388.949219 1400.960938 L 2497.359375 1437.289062 C 2497.578125 1451.789062 2497.511719 1470.96875 2495.890625 1493.070312 C 2493.089844 1531.179688 2486.988281 1575.761719 2477.511719 1609.160156 C 2466.109375 1649.328125 2442.699219 1687.269531 2388.949219 1720.28125 Z M 2388.949219 1400.960938 "/>
<path fill-rule="nonzero" fill="rgb(0%, 51.367188%, 82.8125%)" fill-opacity="1" d="M 2352.609375 1779.550781 L 2352.609375 1350.460938 L 2351.488281 1350.078125 L 2170.378906 1410.789062 C 2166.039062 1434.429688 2169.261719 1544.230469 2190.5 1619.078125 C 2207.769531 1679.980469 2251.640625 1738.539062 2351.488281 1780.03125 C 2351.871094 1779.871094 2352.230469 1779.710938 2352.609375 1779.550781 Z M 2352.609375 1779.550781 "/>
<path fill-rule="nonzero" fill="rgb(100%, 100%, 100%)" fill-opacity="1" d="M 2362.980469 1315.609375 C 2355.5 1313.121094 2347.410156 1313.128906 2339.941406 1315.628906 L 2158.820312 1376.339844 C 2146.289062 1380.550781 2137.019531 1391.230469 2134.640625 1404.25 C 2130.390625 1427.441406 2131.570312 1456.980469 2134.601562 1498.390625 C 2137.640625 1539.800781 2143.78125 1587.550781 2155.539062 1629 C 2175.558594 1699.550781 2229.988281 1768.890625 2337.550781 1813.578125 C 2346.460938 1817.28125 2356.480469 1817.289062 2365.390625 1813.601562 C 2366.339844 1813.199219 2366.75 1813.019531 2366.648438 1813.058594 C 2380.160156 1807.410156 2388.949219 1794.191406 2388.949219 1779.550781 L 2388.949219 1350.460938 C 2388.949219 1334.820312 2378.941406 1320.941406 2364.101562 1315.988281 Z M 2316.28125 1400.199219 L 2316.28125 1721.628906 C 2260.941406 1688.308594 2237.011719 1649.871094 2225.449219 1609.160156 C 2215.980469 1575.761719 2209.878906 1531.179688 2207.078125 1493.070312 C 2205.460938 1470.96875 2205.390625 1451.789062 2205.609375 1437.289062 Z M 2316.28125 1400.199219 "/>
<path fill-rule="nonzero" fill="rgb(100%, 100%, 100%)" fill-opacity="1" d="M 2490.769531 1423.421875 C 2476.5 1421.261719 2461.441406 1424.410156 2449.199219 1433.429688 L 2315.378906 1532.058594 L 2286.808594 1493.289062 C 2268.769531 1468.828125 2232.96875 1463.398438 2208.488281 1481.429688 C 2184.019531 1499.46875 2178.589844 1535.28125 2196.628906 1559.75 L 2258.441406 1643.609375 C 2276.480469 1668.089844 2312.289062 1673.511719 2336.761719 1655.46875 L 2515.660156 1523.601562 C 2540.128906 1505.558594 2545.558594 1469.761719 2527.53125 1445.289062 C 2518.511719 1433.058594 2505.039062 1425.578125 2490.769531 1423.421875 Z M 2490.769531 1423.421875 "/>
<path fill-rule="nonzero" fill="rgb(100%, 100%, 100%)" fill-opacity="1" d="M 2498.269531 1466.839844 C 2504.738281 1475.621094 2502.878906 1487.890625 2494.109375 1494.359375 L 2315.199219 1626.21875 C 2306.429688 1632.691406 2294.160156 1630.828125 2287.691406 1622.058594 L 2225.878906 1538.191406 C 2219.410156 1529.421875 2221.269531 1517.148438 2230.039062 1510.679688 C 2238.820312 1504.210938 2251.089844 1506.070312 2257.558594 1514.851562 L 2307.699219 1582.871094 L 2470.761719 1462.679688 C 2479.53125 1456.210938 2491.808594 1458.070312 2498.269531 1466.839844 Z M 2498.269531 1466.839844 "/>
<path fill-rule="nonzero" fill="rgb(0%, 44.309998%, 73.631287%)" fill-opacity="1" d="M 1574.351562 1805.410156 C 1582.5 1792.511719 1594.960938 1783.429688 1609.480469 1778.890625 C 1624.050781 1774.328125 1640.699219 1773.089844 1655.070312 1779.050781 C 1683.261719 1790.730469 1694.410156 1822.710938 1691.738281 1851.179688 C 1689.25 1877.820312 1675.140625 1902.871094 1654.671875 1919.859375 C 1648.398438 1925.058594 1641.21875 1928.871094 1634.679688 1933.679688 C 1627.628906 1938.839844 1620.730469 1944.21875 1613.851562 1949.601562 C 1597.988281 1962.011719 1581.78125 1974.328125 1566.941406 1987.960938 C 1562.230469 1992.289062 1569.261719 1999.28125 1573.941406 1994.96875 C 1587.859375 1982.191406 1603.019531 1970.621094 1617.859375 1958.949219 C 1625.070312 1953.289062 1632.289062 1947.640625 1639.679688 1942.21875 C 1647.050781 1936.820312 1655.019531 1932.441406 1662.058594 1926.550781 C 1684.410156 1907.820312 1698.941406 1880.199219 1701.648438 1851.179688 C 1704.539062 1820.25 1692.058594 1786.378906 1663 1771.851562 C 1646.140625 1763.421875 1626.300781 1763.660156 1608.480469 1768.839844 C 1590.800781 1773.96875 1575.660156 1784.789062 1565.789062 1800.410156 C 1562.378906 1805.820312 1570.949219 1810.800781 1574.351562 1805.410156 Z M 1574.351562 1805.410156 "/>
<path fill-rule="nonzero" fill="rgb(100%, 100%, 100%)" fill-opacity="1" d="M 1637.730469 1728.859375 C 1623.980469 1728.320312 1610.570312 1730.390625 1598.339844 1733.941406 C 1572.871094 1741.351562 1549.859375 1757.609375 1535.070312 1781.011719 L 1535.058594 1781.019531 L 1535.058594 1781.03125 C 1529.199219 1790.320312 1527.089844 1804.660156 1530.710938 1815.621094 C 1534.320312 1826.578125 1541.421875 1833.808594 1549.21875 1838.351562 C 1557.019531 1842.898438 1566.378906 1845.300781 1577.101562 1843.5 C 1587.820312 1841.710938 1599.179688 1834.128906 1605.070312 1824.820312 C 1608.398438 1819.539062 1613.320312 1815.761719 1620.320312 1813.570312 C 1629.160156 1810.808594 1637.609375 1811.140625 1641.160156 1812.609375 C 1650.808594 1816.609375 1657.121094 1831.191406 1655.570312 1847.808594 C 1654.058594 1863.871094 1644.75 1880.878906 1631.460938 1891.898438 L 1631.460938 1891.910156 C 1628.980469 1893.960938 1622.558594 1897.5 1613.199219 1904.371094 C 1613.191406 1904.371094 1613.191406 1904.371094 1613.191406 1904.371094 C 1613.191406 1904.371094 1613.191406 1904.378906 1613.179688 1904.378906 C 1605.558594 1909.96875 1598.378906 1915.578125 1591.460938 1920.980469 L 1591.460938 1920.988281 C 1575.871094 1933.179688 1558.878906 1946.03125 1542.359375 1961.210938 L 1542.351562 1961.210938 L 1542.339844 1961.230469 C 1534.261719 1968.660156 1528.441406 1982.019531 1529.121094 1993.621094 C 1529.800781 2005.210938 1534.871094 2014.058594 1541.261719 2020.429688 C 1547.648438 2026.808594 1556.058594 2031.46875 1566.808594 2032.480469 C 1577.558594 2033.488281 1590.421875 2029.179688 1598.519531 2021.738281 L 1598.53125 2021.730469 C 1610.789062 2010.460938 1625.191406 1999.421875 1640.308594 1987.53125 L 1640.328125 1987.511719 C 1647.480469 1981.890625 1654.378906 1976.5 1661.160156 1971.53125 L 1661.160156 1971.519531 C 1661.171875 1971.519531 1661.171875 1971.519531 1661.171875 1971.519531 C 1666.019531 1967.960938 1674.800781 1963.269531 1685.390625 1954.398438 C 1715.289062 1929.359375 1734.191406 1893.429688 1737.828125 1854.570312 C 1741.851562 1811.53125 1724.78125 1762.121094 1679.25 1739.351562 C 1665.589844 1732.519531 1651.480469 1729.390625 1637.730469 1728.859375 Z M 1637.730469 1728.859375 "/>
<path fill-rule="nonzero" fill="rgb(0%, 44.309998%, 73.631287%)" fill-opacity="1" d="M 1576.269531 1800.410156 C 1567.558594 1786.621094 1554.78125 1776.558594 1539.550781 1770.820312 C 1523.898438 1764.921875 1505.46875 1763.019531 1489.289062 1767.78125 C 1458.121094 1776.941406 1440.851562 1808.488281 1440.011719 1839.460938 C 1439.210938 1869.238281 1451.820312 1898.71875 1472.660156 1919.789062 C 1477.640625 1924.820312 1483.121094 1929.359375 1488.949219 1933.359375 C 1492.160156 1935.570312 1495.589844 1937.410156 1498.78125 1939.640625 C 1505.351562 1944.230469 1511.671875 1949.179688 1517.980469 1954.101562 C 1534.941406 1967.300781 1552.28125 1980.429688 1568.109375 1994.980469 C 1572.808594 1999.289062 1579.820312 1992.300781 1575.121094 1987.96875 C 1562.160156 1976.058594 1548.058594 1965.25 1534.25 1954.351562 C 1526.769531 1948.441406 1519.261719 1942.570312 1511.640625 1936.839844 C 1506.148438 1932.710938 1500.46875 1929.191406 1494.78125 1925.371094 C 1472.730469 1910.558594 1457.078125 1886.71875 1451.769531 1860.761719 C 1446.03125 1832.78125 1453.25 1800.011719 1478.410156 1783.640625 C 1492.910156 1774.199219 1510.589844 1773.390625 1527.070312 1777.359375 C 1543.789062 1781.398438 1558.441406 1790.738281 1567.710938 1805.410156 C 1571.109375 1810.789062 1579.691406 1805.820312 1576.269531 1800.410156 Z M 1576.269531 1800.410156 "/>
<path fill-rule="nonzero" fill="rgb(100%, 100%, 100%)" fill-opacity="1" d="M 1507.789062 1728.621094 C 1498.371094 1728.730469 1488.730469 1730.070312 1479.03125 1732.921875 C 1429.710938 1747.429688 1404.871094 1794.679688 1403.691406 1838.480469 C 1402.589844 1879.160156 1419.230469 1917.441406 1446.839844 1945.339844 L 1446.839844 1945.351562 C 1453.488281 1952.070312 1460.730469 1958.058594 1468.378906 1963.308594 C 1468.378906 1963.308594 1468.378906 1963.308594 1468.378906 1963.320312 C 1473.75 1967.011719 1477.078125 1968.808594 1477.949219 1969.421875 L 1477.960938 1969.429688 L 1477.980469 1969.441406 C 1483.449219 1973.25 1489.289062 1977.808594 1495.671875 1982.769531 C 1512.878906 1996.171875 1529.410156 2008.75 1543.53125 2021.730469 L 1543.53125 2021.738281 L 1543.539062 2021.738281 C 1551.640625 2029.191406 1564.5 2033.5 1575.25 2032.480469 C 1586.011719 2031.46875 1594.410156 2026.808594 1600.808594 2020.441406 C 1607.191406 2014.058594 1612.269531 2005.21875 1612.941406 1993.621094 C 1613.628906 1982.03125 1607.800781 1968.660156 1599.71875 1961.230469 L 1599.710938 1961.21875 L 1599.699219 1961.210938 C 1585.140625 1947.839844 1570.308594 1936.519531 1556.78125 1925.839844 C 1549.191406 1919.839844 1541.449219 1913.800781 1533.480469 1907.800781 C 1526.300781 1902.398438 1520.019531 1898.550781 1515.039062 1895.210938 C 1515.039062 1895.210938 1515.039062 1895.210938 1515.03125 1895.199219 C 1501.359375 1886.011719 1490.738281 1869.980469 1487.359375 1853.46875 L 1487.359375 1853.460938 C 1483.949219 1836.828125 1488.980469 1820.109375 1498.230469 1814.089844 C 1502.21875 1811.5 1508.941406 1810.359375 1518.539062 1812.679688 C 1527.550781 1814.859375 1533.230469 1818.859375 1537 1824.820312 C 1542.878906 1834.140625 1554.25 1841.699219 1564.949219 1843.5 C 1575.660156 1845.289062 1585.011719 1842.910156 1592.820312 1838.371094 C 1600.621094 1833.828125 1607.738281 1826.589844 1611.359375 1815.601562 C 1614.980469 1804.621094 1612.839844 1790.28125 1606.980469 1781 C 1593.960938 1760.390625 1574.410156 1745.140625 1552.371094 1736.820312 L 1552.359375 1736.820312 C 1538.589844 1731.621094 1523.488281 1728.429688 1507.789062 1728.621094 Z M 1507.789062 1728.621094 "/>
<path fill-rule="nonzero" fill="rgb(0%, 44.309998%, 73.631287%)" fill-opacity="1" d="M 1549.449219 1825.460938 C 1548.03125 1825.460938 1546.769531 1826.371094 1546.320312 1827.71875 L 1531.941406 1870.839844 L 1530.449219 1866.371094 C 1529.441406 1863.359375 1525.191406 1863.359375 1524.179688 1866.371094 L 1519.320312 1880.960938 L 1497.269531 1880.960938 C 1495.441406 1880.960938 1493.960938 1882.429688 1493.960938 1884.261719 C 1493.960938 1886.078125 1495.441406 1887.558594 1497.269531 1887.558594 L 1521.699219 1887.558594 C 1523.128906 1887.558594 1524.390625 1886.648438 1524.839844 1885.308594 L 1527.320312 1877.859375 L 1528.808594 1882.328125 C 1529.808594 1885.339844 1534.070312 1885.339844 1535.070312 1882.328125 L 1549.449219 1839.210938 L 1562.171875 1877.371094 L 1581 1933.859375 C 1582 1936.871094 1586.261719 1936.871094 1587.269531 1933.859375 L 1617.171875 1844.171875 L 1625.921875 1870.441406 C 1626.929688 1873.449219 1631.191406 1873.449219 1632.191406 1870.441406 L 1637.96875 1853.089844 L 1645.738281 1876.390625 C 1646.191406 1877.730469 1647.449219 1878.640625 1648.878906 1878.640625 L 1733.269531 1878.640625 C 1735.089844 1878.640625 1736.570312 1877.160156 1736.570312 1875.339844 C 1736.570312 1873.519531 1735.089844 1872.039062 1733.269531 1872.039062 L 1651.25 1872.039062 L 1641.109375 1841.601562 C 1640.109375 1838.589844 1635.839844 1838.589844 1634.839844 1841.601562 L 1629.058594 1858.949219 L 1620.300781 1832.679688 C 1619.300781 1829.671875 1615.039062 1829.671875 1614.03125 1832.679688 L 1584.128906 1922.371094 L 1568.441406 1875.289062 L 1552.589844 1827.71875 C 1552.140625 1826.371094 1550.878906 1825.460938 1549.449219 1825.460938 Z M 1549.449219 1825.460938 "/>
<path fill-rule="nonzero" fill="rgb(100%, 100%, 100%)" fill-opacity="1" d="M 1549.449219 1789.128906 C 1532.539062 1789.128906 1517.210938 1800.171875 1511.851562 1816.21875 C 1511.851562 1816.21875 1511.851562 1816.230469 1511.851562 1816.230469 L 1505.660156 1834.789062 C 1501.679688 1837.441406 1498.101562 1840.75 1495.210938 1844.621094 L 1497.269531 1844.621094 C 1496.550781 1844.621094 1495.839844 1844.691406 1495.128906 1844.730469 C 1492.851562 1847.808594 1490.949219 1851.179688 1489.71875 1854.859375 L 1493.058594 1844.871094 C 1473.480469 1847.058594 1457.628906 1864.21875 1457.628906 1884.261719 C 1457.628906 1905.71875 1475.808594 1923.890625 1497.269531 1923.890625 L 1521.699219 1923.890625 C 1521.710938 1923.890625 1521.710938 1923.890625 1521.71875 1923.890625 C 1527.269531 1923.890625 1532.601562 1922.601562 1537.511719 1920.441406 C 1537.730469 1920.398438 1537.960938 1920.339844 1538.179688 1920.300781 L 1546.53125 1945.351562 C 1546.53125 1945.351562 1546.53125 1945.359375 1546.53125 1945.359375 C 1551.910156 1961.480469 1568.949219 1972.449219 1584.128906 1972.449219 C 1599.289062 1972.460938 1616.339844 1961.5 1621.730469 1945.371094 C 1621.730469 1945.371094 1621.730469 1945.359375 1621.730469 1945.351562 L 1633.019531 1911.5 C 1637.949219 1913.679688 1643.300781 1914.980469 1648.878906 1914.980469 L 1733.269531 1914.980469 C 1754.730469 1914.980469 1772.898438 1896.800781 1772.898438 1875.339844 C 1772.898438 1853.878906 1754.730469 1835.699219 1733.269531 1835.699219 L 1677.441406 1835.699219 L 1675.578125 1830.109375 C 1670.648438 1815.320312 1655.921875 1804.980469 1641.808594 1803.339844 C 1634.539062 1797.570312 1625.601562 1794.089844 1617.171875 1794.089844 C 1605.421875 1794.089844 1592.609375 1800.710938 1584.898438 1811.171875 C 1578.28125 1797.910156 1564.519531 1789.128906 1549.449219 1789.128906 Z M 1549.449219 1789.128906 "/>
<path fill-rule="nonzero" fill="rgb(100%, 100%, 100%)" fill-opacity="1" d="M 1471.328125 2008.371094 C 1512.839844 2041.230469 1520 2102.6875 1487.148438 2144.199219 L 1360.480469 2304.277344 C 1327.628906 2345.792969 1266.171875 2352.953125 1224.660156 2320.101562 C 1183.140625 2287.25 1175.980469 2225.789062 1208.828125 2184.273438 L 1335.5 2024.191406 C 1368.351562 1982.679688 1429.808594 1975.519531 1471.328125 2008.371094 Z M 1426.230469 2065.359375 C 1415.308594 2056.710938 1401.140625 2058.359375 1392.480469 2069.289062 L 1265.820312 2229.367188 C 1257.171875 2240.296875 1258.820312 2254.464844 1269.75 2263.117188 C 1280.679688 2271.765625 1294.851562 2270.113281 1303.5 2259.183594 L 1430.171875 2099.109375 C 1438.820312 2088.175781 1437.171875 2074.011719 1426.230469 2065.359375 Z M 1426.230469 2065.359375 "/>
<path fill-rule="nonzero" fill="rgb(0%, 61.131287%, 91.40625%)" fill-opacity="1" d="M 1448.78125 2036.871094 C 1422.558594 2016.109375 1384.738281 2020.519531 1363.988281 2046.738281 L 1237.320312 2206.820312 C 1216.570312 2233.042969 1220.980469 2270.859375 1247.199219 2291.609375 C 1273.429688 2312.359375 1311.238281 2307.953125 1331.988281 2281.730469 L 1458.660156 2121.65625 C 1479.410156 2095.433594 1475.011719 2057.621094 1448.78125 2036.871094 Z M 1448.78125 2036.871094 "/>
<path fill-rule="nonzero" fill="rgb(100%, 100%, 100%)" fill-opacity="1" d="M 1739.679688 1669.25 C 1852.550781 1758.558594 1871.769531 1923.558594 1782.460938 2036.421875 C 1693.140625 2149.289062 1528.148438 2168.507812 1415.289062 2079.191406 C 1302.421875 1989.890625 1283.199219 1824.890625 1372.511719 1712.03125 C 1461.820312 1599.160156 1626.820312 1579.941406 1739.679688 1669.25 Z M 1661.140625 1768.511719 C 1602.410156 1722.039062 1518.230469 1731.851562 1471.769531 1790.570312 C 1425.300781 1849.289062 1435.109375 1933.46875 1493.828125 1979.941406 C 1552.550781 2026.410156 1636.730469 2016.601562 1683.199219 1957.878906 C 1729.671875 1899.160156 1719.859375 1814.980469 1661.140625 1768.511719 Z M 1661.140625 1768.511719 "/>
<path fill-rule="nonzero" fill="rgb(87.109375%, 95.3125%, 99.609375%)" fill-opacity="1" d="M 1717.128906 1697.75 C 1763.941406 1734.78125 1794.109375 1788.890625 1801.019531 1848.179688 C 1807.929688 1907.46875 1791 1967.070312 1753.960938 2013.871094 C 1716.929688 2060.679688 1662.808594 2090.855469 1603.519531 2097.761719 C 1544.238281 2104.667969 1484.640625 2087.742188 1437.828125 2050.699219 C 1391.03125 2013.660156 1360.851562 1959.550781 1353.941406 1900.269531 C 1347.039062 1840.980469 1363.960938 1781.378906 1401 1734.570312 C 1438.039062 1687.769531 1492.160156 1657.589844 1551.441406 1650.691406 C 1610.730469 1643.78125 1670.328125 1660.710938 1717.128906 1697.75 Z M 1683.679688 1740.019531 C 1648.089844 1711.851562 1602.769531 1698.980469 1557.679688 1704.230469 C 1512.589844 1709.480469 1471.441406 1732.429688 1443.269531 1768.019531 C 1415.109375 1803.621094 1402.230469 1848.941406 1407.488281 1894.03125 C 1412.738281 1939.109375 1435.691406 1980.269531 1471.28125 2008.429688 C 1506.878906 2036.601562 1552.199219 2049.46875 1597.289062 2044.21875 C 1642.371094 2038.96875 1683.53125 2016.019531 1711.691406 1980.429688 C 1739.859375 1944.828125 1752.730469 1899.5 1747.480469 1854.421875 C 1742.230469 1809.328125 1719.28125 1768.179688 1683.679688 1740.019531 Z M 1683.679688 1740.019531 "/>
<path fill-rule="nonzero" fill="rgb(100%, 100%, 100%)" fill-opacity="1" d="M 1760.871094 1642.480469 C 1888.519531 1743.488281 1910.25 1929.960938 1809.230469 2057.609375 C 1708.21875 2185.261719 1521.75 2206.984375 1394.101562 2105.972656 C 1266.441406 2004.960938 1244.71875 1818.488281 1345.730469 1690.839844 C 1446.75 1563.179688 1633.210938 1541.460938 1760.871094 1642.480469 Z M 1677.25 1748.140625 C 1607.28125 1692.78125 1506.769531 1704.488281 1451.398438 1774.460938 C 1396.039062 1844.429688 1407.75 1944.941406 1477.710938 2000.308594 C 1547.679688 2055.671875 1648.191406 2043.960938 1703.558594 1973.988281 C 1758.929688 1904.019531 1747.21875 1803.511719 1677.25 1748.140625 Z M 1677.25 1748.140625 "/>
<path fill-rule="nonzero" fill="rgb(1.177979%, 49.021912%, 74.021912%)" fill-opacity="1" d="M 1738.320312 1670.96875 C 1792.230469 1713.621094 1826.980469 1775.949219 1834.941406 1844.230469 C 1842.890625 1912.511719 1823.390625 1981.160156 1780.738281 2035.058594 C 1738.078125 2088.96875 1675.761719 2123.722656 1607.480469 2131.675781 C 1539.191406 2139.632812 1470.550781 2120.136719 1416.640625 2077.480469 C 1362.738281 2034.820312 1327.980469 1972.5 1320.03125 1904.21875 C 1312.070312 1835.941406 1331.570312 1767.289062 1374.230469 1713.390625 C 1416.878906 1659.480469 1479.210938 1624.730469 1547.488281 1616.769531 C 1615.769531 1608.820312 1684.410156 1628.308594 1738.320312 1670.96875 Z M 1699.800781 1719.648438 C 1658.800781 1687.210938 1606.601562 1672.390625 1554.671875 1678.441406 C 1502.75 1684.480469 1455.351562 1710.910156 1422.910156 1751.910156 C 1390.46875 1792.910156 1375.640625 1845.109375 1381.691406 1897.03125 C 1387.738281 1948.960938 1414.171875 1996.359375 1455.171875 2028.800781 C 1496.160156 2061.230469 1548.371094 2076.058594 1600.289062 2070.011719 C 1652.21875 2063.960938 1699.609375 2037.53125 1732.058594 1996.539062 C 1764.5 1955.539062 1779.320312 1903.339844 1773.269531 1851.410156 C 1767.21875 1799.488281 1740.789062 1752.089844 1699.800781 1719.648438 Z M 1699.800781 1719.648438 "/>
<path fill-rule="nonzero" fill="rgb(100%, 100%, 100%)" fill-opacity="1" d="M 1443.398438 2157.988281 C 1457.480469 2169.132812 1461.308594 2188.894531 1452.410156 2204.492188 C 1450.011719 2208.695312 1447.269531 2212.757812 1444.199219 2216.632812 L 1318.359375 2375.664062 C 1285.640625 2417.007812 1224.429688 2424.140625 1183.089844 2391.425781 L 1164.800781 2376.953125 C 1123.460938 2344.238281 1116.320312 2283.019531 1149.039062 2241.675781 L 1274.878906 2082.644531 C 1277.949219 2078.769531 1281.269531 2075.171875 1284.808594 2071.871094 C 1297.941406 2059.621094 1318.058594 2058.800781 1332.140625 2069.949219 Z M 1370.351562 2192.855469 L 1315 2149.054688 L 1206.019531 2286.769531 C 1197.511719 2297.527344 1199.128906 2311.453125 1209.890625 2319.96875 L 1228.179688 2334.4375 C 1238.941406 2342.953125 1252.859375 2341.328125 1261.378906 2330.570312 Z M 1370.351562 2192.855469 "/>
<path fill-rule="nonzero" fill="rgb(1.177979%, 49.021912%, 74.021912%)" fill-opacity="1" d="M 1420.851562 2186.480469 C 1419.359375 2189.101562 1417.640625 2191.644531 1415.710938 2194.085938 L 1289.871094 2353.117188 C 1269.25 2379.167969 1231.679688 2383.546875 1205.628906 2362.929688 L 1187.339844 2348.460938 C 1161.289062 2327.84375 1156.921875 2290.273438 1177.53125 2264.222656 L 1303.378906 2105.191406 C 1305.308594 2102.75 1307.390625 2100.5 1309.589844 2098.441406 Z M 1420.851562 2186.480469 "/>
<path fill-rule="nonzero" fill="rgb(100%, 96.875%, 21.556091%)" fill-opacity="1" d="M 1294.960938 694.839844 L 2330.929688 694.839844 C 2376.480469 694.839844 2413.148438 731.511719 2413.148438 777.058594 L 2413.148438 2158.359375 C 2413.148438 2203.910156 2376.480469 2240.578125 2330.929688 2240.578125 L 1294.960938 2240.578125 C 1249.410156 2240.578125 1212.730469 2203.910156 1212.730469 2158.359375 L 1212.730469 777.058594 C 1212.730469 731.511719 1249.410156 694.839844 1294.960938 694.839844 Z M 1294.960938 694.839844 "/>
<path fill-rule="nonzero" fill="rgb(97.65625%, 97.65625%, 97.65625%)" fill-opacity="1" d="M 1375.230469 814.621094 L 2250.648438 814.621094 C 2289.140625 814.621094 2320.128906 845.609375 2320.128906 884.101562 L 2320.128906 2051.320312 C 2320.128906 2089.808594 2289.140625 2120.796875 2250.648438 2120.796875 L 1375.230469 2120.796875 C 1336.738281 2120.796875 1305.761719 2089.808594 1305.761719 2051.320312 L 1305.761719 884.101562 C 1305.761719 845.609375 1336.738281 814.621094 1375.230469 814.621094 Z M 1375.230469 814.621094 "/>
<path fill-rule="nonzero" fill="rgb(83.984375%, 93.75%, 100%)" fill-opacity="1" d="M 1434.820312 1213.859375 L 2249.449219 1213.859375 C 2261.101562 1213.859375 2270.480469 1220.980469 2270.480469 1229.839844 C 2270.480469 1238.699219 2261.101562 1245.828125 2249.449219 1245.828125 L 1434.820312 1245.828125 C 1423.160156 1245.828125 1413.78125 1238.699219 1413.78125 1229.839844 C 1413.78125 1220.980469 1423.160156 1213.859375 1434.820312 1213.859375 Z M 1434.820312 1213.859375 "/>
<path fill-rule="nonzero" fill="rgb(83.984375%, 93.75%, 100%)" fill-opacity="1" d="M 1434.820312 1347.570312 L 2249.449219 1347.570312 C 2261.101562 1347.570312 2270.480469 1354.699219 2270.480469 1363.558594 C 2270.480469 1372.421875 2261.101562 1379.550781 2249.449219 1379.550781 L 1434.820312 1379.550781 C 1423.160156 1379.550781 1413.78125 1372.421875 1413.78125 1363.558594 C 1413.78125 1354.699219 1423.160156 1347.570312 1434.820312 1347.570312 Z M 1434.820312 1347.570312 "/>
<path fill-rule="nonzero" fill="rgb(83.984375%, 93.75%, 100%)" fill-opacity="1" d="M 1434.820312 1490.011719 L 2249.449219 1490.011719 C 2261.101562 1490.011719 2270.480469 1497.140625 2270.480469 1506 C 2270.480469 1514.859375 2261.101562 1521.988281 2249.449219 1521.988281 L 1434.820312 1521.988281 C 1423.160156 1521.988281 1413.78125 1514.859375 1413.78125 1506 C 1413.78125 1497.140625 1423.160156 1490.011719 1434.820312 1490.011719 Z M 1434.820312 1490.011719 "/>
<path fill-rule="nonzero" fill="rgb(83.984375%, 93.75%, 100%)" fill-opacity="1" d="M 1434.820312 1623.730469 L 2249.449219 1623.730469 C 2261.101562 1623.730469 2270.480469 1630.859375 2270.480469 1639.71875 C 2270.480469 1648.570312 2261.101562 1655.710938 2249.449219 1655.710938 L 1434.820312 1655.710938 C 1423.160156 1655.710938 1413.78125 1648.570312 1413.78125 1639.71875 C 1413.78125 1630.859375 1423.160156 1623.730469 1434.820312 1623.730469 Z M 1434.820312 1623.730469 "/>
<path fill-rule="nonzero" fill="rgb(42.358398%, 63.084412%, 76.171875%)" fill-opacity="1" d="M 1539.148438 629.480469 L 2086.730469 629.480469 C 2126.359375 629.480469 2158.269531 661.378906 2158.269531 701.011719 C 2158.269531 740.640625 2126.359375 772.539062 2086.730469 772.539062 L 1539.148438 772.539062 C 1499.519531 772.539062 1467.621094 740.640625 1467.621094 701.011719 C 1467.621094 661.378906 1499.519531 629.480469 1539.148438 629.480469 Z M 1539.148438 629.480469 "/>
<path fill-rule="nonzero" fill="rgb(65.818787%, 81.639099%, 100%)" fill-opacity="1" d="M 1584.78125 641.398438 L 2041.101562 641.398438 C 2074.128906 641.398438 2100.710938 667.980469 2100.710938 701.011719 C 2100.710938 734.03125 2074.128906 760.621094 2041.101562 760.621094 L 1584.78125 760.621094 C 1551.761719 760.621094 1525.171875 734.03125 1525.171875 701.011719 C 1525.171875 667.980469 1551.761719 641.398438 1584.78125 641.398438 Z M 1584.78125 641.398438 "/>
<path fill-rule="nonzero" fill="rgb(77.734375%, 87.889099%, 100%)" fill-opacity="1" d="M 1579.488281 655.929688 L 1805.121094 655.929688 C 1808.75 655.929688 1811.671875 658.859375 1811.671875 662.488281 C 1811.671875 666.121094 1808.75 669.050781 1805.121094 669.050781 L 1579.488281 669.050781 C 1575.859375 669.050781 1572.929688 666.121094 1572.929688 662.488281 C 1572.929688 658.859375 1575.859375 655.929688 1579.488281 655.929688 Z M 1579.488281 655.929688 "/>
<path fill-rule="nonzero" fill="rgb(77.734375%, 87.889099%, 100%)" fill-opacity="1" d="M 1854.191406 655.929688 L 1957.730469 655.929688 C 1961.359375 655.929688 1964.289062 658.859375 1964.289062 662.488281 C 1964.289062 666.121094 1961.359375 669.050781 1957.730469 669.050781 L 1854.191406 669.050781 C 1850.558594 669.050781 1847.640625 666.121094 1847.640625 662.488281 C 1847.640625 658.859375 1850.558594 655.929688 1854.191406 655.929688 Z M 1854.191406 655.929688 "/>
<path fill-rule="nonzero" fill="rgb(77.734375%, 87.889099%, 100%)" fill-opacity="1" d="M 2011.898438 655.929688 L 2057.289062 655.929688 C 2060.929688 655.929688 2063.851562 658.859375 2063.851562 662.488281 C 2063.851562 666.121094 2060.929688 669.050781 2057.289062 669.050781 L 2011.898438 669.050781 C 2008.269531 669.050781 2005.339844 666.121094 2005.339844 662.488281 C 2005.339844 658.859375 2008.269531 655.929688 2011.898438 655.929688 Z M 2011.898438 655.929688 "/>
<path fill-rule="nonzero" fill="rgb(83.984375%, 93.75%, 100%)" fill-opacity="1" d="M 1499.539062 959.160156 L 2126.351562 959.160156 C 2158.378906 959.160156 2184.160156 984.949219 2184.160156 1016.980469 L 2184.160156 1039.96875 C 2184.160156 1072 2158.378906 1097.789062 2126.351562 1097.789062 L 1499.539062 1097.789062 C 1467.511719 1097.789062 1441.71875 1072 1441.71875 1039.96875 L 1441.71875 1016.980469 C 1441.71875 984.949219 1467.511719 959.160156 1499.539062 959.160156 Z M 1499.539062 959.160156 "/>
<path fill-rule="nonzero" fill="rgb(0%, 51.367188%, 82.8125%)" fill-opacity="1" d="M 1623.789062 985.269531 C 1618.398438 985.269531 1613.5 986.179688 1609.078125 988 C 1604.671875 989.820312 1601.320312 992.5 1599.019531 996.03125 C 1596.730469 999.53125 1595.578125 1003.308594 1595.578125 1007.359375 C 1595.578125 1010.179688 1596.128906 1012.808594 1597.230469 1015.21875 C 1597.679688 1017.230469 1598.441406 1019.121094 1599.539062 1020.890625 C 1601.441406 1023.839844 1604.300781 1026.320312 1608.128906 1028.320312 C 1611.078125 1029.890625 1616.238281 1031.570312 1623.601562 1033.351562 C 1630.960938 1035.101562 1635.71875 1036.390625 1637.871094 1037.230469 C 1641.230469 1038.511719 1643.628906 1040.101562 1645.089844 1041.988281 C 1645.429688 1042.421875 1645.71875 1042.878906 1645.96875 1043.351562 C 1646.050781 1043.890625 1646.101562 1044.449219 1646.101562 1045.03125 C 1646.101562 1047.511719 1645.328125 1049.808594 1643.808594 1051.921875 C 1642.308594 1054 1640.019531 1055.640625 1636.910156 1056.839844 C 1634.28125 1057.871094 1631.289062 1058.449219 1627.960938 1058.609375 C 1624.101562 1058.429688 1620.589844 1057.660156 1617.421875 1056.289062 C 1613.769531 1054.691406 1611.070312 1052.609375 1609.320312 1050.058594 C 1608.78125 1049.238281 1608.320312 1048.320312 1607.910156 1047.359375 C 1607.621094 1046.199219 1607.378906 1045 1607.21875 1043.691406 L 1606.699219 1043.730469 C 1606.429688 1042.609375 1606.191406 1041.429688 1606.039062 1040.160156 L 1602.761719 1040.449219 C 1602.75 1040.359375 1602.738281 1040.261719 1602.730469 1040.160156 L 1602.519531 1040.179688 C 1602.519531 1040.179688 1602.519531 1040.171875 1602.519531 1040.160156 L 1592.519531 1041.039062 C 1592.609375 1044.640625 1593.320312 1047.988281 1594.609375 1051.109375 C 1595.328125 1053.910156 1596.480469 1056.550781 1598.070312 1059 C 1600.878906 1063.21875 1604.71875 1066.398438 1609.601562 1068.511719 C 1614.519531 1070.621094 1620.609375 1071.679688 1627.871094 1071.679688 C 1627.890625 1071.679688 1627.929688 1071.679688 1627.949219 1071.679688 C 1627.988281 1071.679688 1628.03125 1071.679688 1628.070312 1071.679688 C 1628.558594 1071.679688 1629.050781 1071.671875 1629.539062 1071.660156 C 1630.140625 1071.671875 1630.761719 1071.679688 1631.390625 1071.679688 C 1637.109375 1071.679688 1642.25 1070.640625 1646.808594 1068.570312 C 1651.398438 1066.449219 1654.921875 1063.519531 1657.359375 1059.761719 C 1659.808594 1055.96875 1661.019531 1051.941406 1661.019531 1047.679688 C 1661.019531 1044.589844 1660.441406 1041.78125 1659.300781 1039.21875 C 1658.769531 1036.890625 1657.839844 1034.738281 1656.519531 1032.78125 C 1654.289062 1029.460938 1650.851562 1026.730469 1646.179688 1024.578125 C 1642.96875 1023.121094 1637.050781 1021.429688 1628.410156 1019.5 C 1619.808594 1017.53125 1614.480469 1015.609375 1612.441406 1013.75 C 1611.691406 1013.078125 1611.070312 1012.328125 1610.589844 1011.519531 C 1610.539062 1011.078125 1610.5 1010.640625 1610.5 1010.171875 C 1610.5 1006.851562 1611.960938 1004.03125 1614.878906 1001.691406 C 1617.539062 999.558594 1621.609375 998.390625 1627.078125 998.179688 C 1632.410156 998.390625 1636.5 999.679688 1639.351562 1002.019531 C 1641.019531 1003.390625 1642.320312 1005.109375 1643.261719 1007.171875 C 1643.46875 1008.058594 1643.640625 1008.988281 1643.75 1009.980469 L 1643.949219 1009.960938 C 1643.949219 1009.96875 1643.949219 1009.980469 1643.949219 1009.980469 L 1644.269531 1009.960938 C 1644.570312 1011.058594 1644.789062 1012.25 1644.929688 1013.5 L 1645.128906 1013.488281 C 1645.128906 1013.5 1645.128906 1013.5 1645.128906 1013.5 L 1648.421875 1013.25 C 1648.429688 1013.339844 1648.441406 1013.421875 1648.449219 1013.5 L 1658.621094 1012.738281 C 1658.5 1009.570312 1657.851562 1006.640625 1656.699219 1003.921875 C 1656.058594 1001.289062 1654.988281 998.839844 1653.511719 996.578125 C 1651.058594 992.871094 1647.558594 990.058594 1643.011719 988.160156 C 1638.488281 986.230469 1633.261719 985.269531 1627.320312 985.269531 C 1626.769531 985.269531 1626.238281 985.28125 1625.699219 985.300781 C 1625.140625 985.28125 1624.570312 985.269531 1623.988281 985.269531 C 1623.960938 985.269531 1623.929688 985.269531 1623.898438 985.269531 C 1623.859375 985.269531 1623.828125 985.269531 1623.789062 985.269531 Z M 2029.109375 985.269531 C 2022.039062 985.269531 2015.550781 986.890625 2009.640625 990.128906 C 2003.769531 993.339844 1999.230469 998.058594 1996.03125 1004.289062 C 1992.859375 1010.488281 1991.269531 1017.761719 1991.269531 1026.109375 C 1991.269531 1032.988281 1992.410156 1039.46875 1994.679688 1045.558594 C 1995.238281 1047.449219 1995.890625 1049.308594 1996.660156 1051.121094 C 1999.5 1057.789062 2003.621094 1062.890625 2009.011719 1066.429688 C 2014.441406 1069.929688 2021.480469 1071.679688 2030.121094 1071.679688 C 2030.148438 1071.679688 2030.179688 1071.679688 2030.199219 1071.679688 C 2030.25 1071.679688 2030.28125 1071.679688 2030.320312 1071.679688 C 2030.839844 1071.679688 2031.359375 1071.671875 2031.871094 1071.660156 C 2032.449219 1071.671875 2033.039062 1071.679688 2033.640625 1071.679688 C 2041.988281 1071.679688 2049.039062 1069.398438 2054.808594 1064.851562 C 2060.601562 1060.25 2064.609375 1053.601562 2066.828125 1044.890625 L 2064.789062 1044.371094 C 2065.101562 1043.398438 2065.390625 1042.398438 2065.660156 1041.371094 L 2055.050781 1038.691406 C 2054.988281 1038.960938 2054.929688 1039.210938 2054.859375 1039.480469 L 2051.730469 1038.691406 C 2051.730469 1038.699219 2051.71875 1038.71875 2051.71875 1038.730469 L 2051.53125 1038.691406 C 2050.070312 1045.429688 2047.28125 1050.519531 2043.160156 1053.941406 C 2039.449219 1057.019531 2035.011719 1058.710938 2029.828125 1059.03125 C 2025.609375 1058.761719 2021.660156 1057.519531 2017.980469 1055.308594 C 2013.828125 1052.820312 2010.75 1049.070312 2008.75 1044.078125 C 2007.53125 1039.78125 2006.910156 1034.949219 2006.910156 1029.578125 C 2006.910156 1024.289062 2007.738281 1019.171875 2009.421875 1014.210938 C 2011.089844 1009.21875 2014 1005.25 2018.109375 1002.300781 C 2021.851562 999.640625 2026.390625 998.179688 2031.738281 997.910156 C 2036.359375 998.171875 2040.25 999.480469 2043.410156 1001.859375 C 2046.941406 1004.519531 2049.640625 1008.769531 2051.5 1014.601562 L 2051.679688 1014.558594 C 2051.691406 1014.570312 2051.699219 1014.578125 2051.699219 1014.601562 L 2054.78125 1013.871094 C 2054.859375 1014.109375 2054.949219 1014.351562 2055.019531 1014.601562 L 2065.46875 1012.140625 C 2065.109375 1010.921875 2064.699219 1009.75 2064.25 1008.621094 L 2064.289062 1008.609375 C 2062.140625 1001.210938 2058.328125 995.46875 2052.859375 991.390625 C 2047.398438 987.308594 2040.648438 985.269531 2032.628906 985.269531 C 2032.070312 985.269531 2031.519531 985.28125 2030.980469 985.300781 C 2030.429688 985.28125 2029.871094 985.269531 2029.308594 985.269531 C 2029.269531 985.269531 2029.230469 985.269531 2029.199219 985.269531 C 2029.171875 985.269531 2029.140625 985.269531 2029.109375 985.269531 Z M 1485.941406 986.628906 L 1485.941406 1066.789062 L 1487.121094 1066.789062 L 1487.121094 1070.308594 L 1501.25 1070.308594 L 1501.25 990.160156 L 1500.078125 990.160156 L 1500.078125 986.628906 Z M 1515.140625 986.628906 L 1515.140625 1066.789062 L 1516.320312 1066.789062 L 1516.320312 1070.308594 L 1530.019531 1070.308594 L 1530.019531 1012.601562 L 1568.589844 1070.308594 L 1583 1070.308594 L 1583 990.160156 L 1581.820312 990.160156 L 1581.820312 986.628906 L 1568.128906 986.628906 L 1568.128906 1044.300781 L 1529.550781 986.628906 Z M 1670.980469 986.628906 L 1670.980469 1032.941406 C 1670.980469 1041.320312 1671.980469 1047.960938 1673.96875 1052.859375 C 1674.328125 1054.199219 1674.738281 1055.449219 1675.21875 1056.589844 C 1677.261719 1061.480469 1680.671875 1065.210938 1685.441406 1067.800781 C 1690.21875 1070.390625 1696.359375 1071.679688 1703.871094 1071.679688 C 1703.898438 1071.679688 1703.929688 1071.679688 1703.960938 1071.679688 C 1704 1071.679688 1704.03125 1071.679688 1704.070312 1071.679688 C 1704.621094 1071.679688 1705.160156 1071.671875 1705.691406 1071.660156 C 1706.25 1071.671875 1706.820312 1071.679688 1707.390625 1071.679688 C 1715.121094 1071.679688 1721.359375 1070.210938 1726.089844 1067.25 C 1730.871094 1064.269531 1734.160156 1060.398438 1735.988281 1055.660156 C 1737.808594 1050.921875 1738.71875 1044.519531 1738.71875 1036.46875 L 1738.71875 990.160156 L 1737.550781 990.160156 L 1737.550781 986.628906 L 1723.410156 986.628906 L 1723.410156 1032.890625 C 1723.410156 1042.949219 1721.761719 1049.75 1718.441406 1053.289062 C 1715.398438 1056.53125 1710.46875 1058.28125 1703.648438 1058.550781 C 1699.800781 1058.359375 1696.480469 1057.480469 1693.691406 1055.910156 C 1690.828125 1054.28125 1688.738281 1052.019531 1687.398438 1049.140625 C 1686.660156 1045.960938 1686.289062 1041.710938 1686.289062 1036.410156 L 1686.289062 990.160156 L 1685.109375 990.160156 L 1685.109375 986.628906 Z M 1751.851562 986.628906 L 1751.851562 1066.789062 L 1753.019531 1066.789062 L 1753.019531 1070.308594 L 1767.160156 1070.308594 L 1767.160156 1034.71875 L 1775.929688 1034.71875 C 1778.671875 1034.71875 1780.640625 1034.851562 1781.839844 1035.101562 C 1783.480469 1035.5 1785.078125 1036.210938 1786.648438 1037.230469 C 1788.25 1038.25 1790.058594 1040.039062 1792.070312 1042.589844 C 1794.070312 1045.140625 1796.621094 1048.828125 1799.71875 1053.640625 L 1810.328125 1070.308594 L 1827.191406 1070.308594 L 1824.941406 1066.789062 L 1826.019531 1066.789062 L 1812.078125 1044.980469 C 1809.308594 1040.710938 1806.371094 1037.160156 1803.269531 1034.308594 C 1802.851562 1033.929688 1802.351562 1033.550781 1801.808594 1033.160156 C 1807.609375 1031.878906 1812.058594 1029.640625 1815.109375 1026.410156 C 1818.789062 1022.511719 1820.628906 1017.710938 1820.628906 1012.03125 C 1820.628906 1008.730469 1820.011719 1005.640625 1818.769531 1002.769531 C 1818.21875 1000.539062 1817.339844 998.421875 1816.121094 996.421875 C 1813.898438 992.769531 1810.929688 990.238281 1807.210938 988.820312 C 1803.488281 987.359375 1798.058594 986.628906 1790.910156 986.628906 Z M 1860.75 986.628906 L 1829.96875 1066.789062 L 1832.5 1066.789062 L 1831.140625 1070.308594 L 1845.929688 1070.308594 L 1854.730469 1046.039062 L 1884.730469 1046.039062 L 1894.078125 1070.308594 L 1909.679688 1070.308594 L 1908.238281 1066.789062 L 1908.511719 1066.789062 L 1875.699219 986.628906 Z M 1913.351562 986.628906 L 1913.351562 1066.789062 L 1914.53125 1066.789062 L 1914.53125 1070.308594 L 1928.21875 1070.308594 L 1928.21875 1012.601562 L 1966.800781 1070.308594 L 1981.210938 1070.308594 L 1981.210938 990.160156 L 1980.03125 990.160156 L 1980.03125 986.628906 L 1966.339844 986.628906 L 1966.339844 1044.300781 L 1927.761719 986.628906 Z M 2075.421875 986.628906 L 2075.421875 1066.789062 L 2076.601562 1066.789062 L 2076.601562 1070.308594 L 2139.941406 1070.308594 L 2139.941406 1060.859375 L 2138.761719 1060.859375 L 2138.761719 1057.328125 L 2090.730469 1057.328125 L 2090.730469 1033.570312 L 2135.070312 1033.570312 L 2135.070312 1024.171875 L 2133.898438 1024.171875 L 2133.898438 1020.640625 L 2090.730469 1020.640625 L 2090.730469 999.609375 L 2138.078125 999.609375 L 2138.078125 990.160156 L 2136.910156 990.160156 L 2136.910156 986.628906 Z M 1767.160156 999.019531 L 1789 999.019531 C 1794.941406 999.019531 1799.28125 1000.230469 1802.019531 1002.679688 C 1803.199219 1003.71875 1804.121094 1004.898438 1804.800781 1006.191406 C 1804.921875 1006.929688 1805 1007.699219 1805 1008.5 C 1805 1011.089844 1804.289062 1013.5 1802.859375 1015.71875 C 1801.441406 1017.910156 1799.359375 1019.511719 1796.628906 1020.53125 C 1793.890625 1021.519531 1790.109375 1022.011719 1785.261719 1022.011719 L 1767.160156 1022.011719 Z M 1869.410156 1005 C 1870.429688 1008.03125 1871.648438 1011.421875 1873.078125 1015.199219 L 1880.121094 1033.871094 L 1859.121094 1033.871094 L 1866.601562 1013.890625 C 1867.679688 1010.941406 1868.621094 1007.980469 1869.410156 1005 Z M 1869.410156 1005 "/>
<path fill-rule="nonzero" fill="rgb(30.979919%, 72.459412%, 100%)" fill-opacity="1" d="M 2351.480469 1289.699219 L 2119.511719 1367.460938 C 2113.960938 1397.75 2118.078125 1538.378906 2145.28125 1634.25 C 2167.410156 1712.261719 2223.589844 1787.269531 2351.480469 1840.410156 C 2479.378906 1787.269531 2535.558594 1712.261719 2557.691406 1634.25 C 2584.890625 1538.378906 2589.011719 1397.75 2583.460938 1367.460938 Z M 2351.480469 1289.699219 "/>
<path fill-rule="nonzero" fill="rgb(0%, 56.054688%, 89.84375%)" fill-opacity="1" d="M 2352.609375 1779.550781 C 2451.660156 1738.089844 2495.261719 1679.75 2512.46875 1619.078125 C 2533.710938 1544.230469 2536.929688 1434.429688 2532.589844 1410.789062 L 2352.609375 1350.460938 Z M 2352.609375 1779.550781 "/>
<path fill-rule="nonzero" fill="rgb(0%, 51.367188%, 82.8125%)" fill-opacity="1" d="M 2352.609375 1779.550781 L 2352.609375 1350.460938 L 2351.488281 1350.078125 L 2170.378906 1410.789062 C 2166.039062 1434.429688 2169.261719 1544.230469 2190.5 1619.078125 C 2207.769531 1679.980469 2251.640625 1738.539062 2351.488281 1780.03125 C 2351.871094 1779.871094 2352.230469 1779.710938 2352.609375 1779.550781 Z M 2352.609375 1779.550781 "/>
<path fill-rule="nonzero" fill="rgb(100%, 100%, 100%)" fill-opacity="1" d="M 2498.269531 1466.839844 C 2504.738281 1475.621094 2502.878906 1487.890625 2494.109375 1494.359375 L 2315.199219 1626.21875 C 2306.429688 1632.691406 2294.160156 1630.828125 2287.691406 1622.058594 L 2225.878906 1538.191406 C 2219.410156 1529.421875 2221.269531 1517.148438 2230.039062 1510.679688 C 2238.820312 1504.210938 2251.089844 1506.070312 2257.558594 1514.851562 L 2307.699219 1582.871094 L 2470.761719 1462.679688 C 2479.53125 1456.210938 2491.808594 1458.070312 2498.269531 1466.839844 Z M 2498.269531 1466.839844 "/>
<path fill-rule="nonzero" fill="rgb(0%, 44.309998%, 73.631287%)" fill-opacity="1" d="M 1574.351562 1805.410156 C 1582.5 1792.511719 1594.960938 1783.429688 1609.480469 1778.890625 C 1624.050781 1774.328125 1640.699219 1773.089844 1655.070312 1779.050781 C 1683.261719 1790.730469 1694.410156 1822.710938 1691.738281 1851.179688 C 1689.25 1877.820312 1675.140625 1902.871094 1654.671875 1919.859375 C 1648.398438 1925.058594 1641.21875 1928.871094 1634.679688 1933.679688 C 1627.628906 1938.839844 1620.730469 1944.21875 1613.851562 1949.601562 C 1597.988281 1962.011719 1581.78125 1974.328125 1566.941406 1987.960938 C 1562.230469 1992.289062 1569.261719 1999.28125 1573.941406 1994.96875 C 1587.859375 1982.191406 1603.019531 1970.621094 1617.859375 1958.949219 C 1625.070312 1953.289062 1632.289062 1947.640625 1639.679688 1942.21875 C 1647.050781 1936.820312 1655.019531 1932.441406 1662.058594 1926.550781 C 1684.410156 1907.820312 1698.941406 1880.199219 1701.648438 1851.179688 C 1704.539062 1820.25 1692.058594 1786.378906 1663 1771.851562 C 1646.140625 1763.421875 1626.300781 1763.660156 1608.480469 1768.839844 C 1590.800781 1773.96875 1575.660156 1784.789062 1565.789062 1800.410156 C 1562.378906 1805.820312 1570.949219 1810.800781 1574.351562 1805.410156 Z M 1574.351562 1805.410156 "/>
<path fill-rule="nonzero" fill="rgb(0%, 44.309998%, 73.631287%)" fill-opacity="1" d="M 1576.269531 1800.410156 C 1567.558594 1786.621094 1554.78125 1776.558594 1539.550781 1770.820312 C 1523.898438 1764.921875 1505.46875 1763.019531 1489.289062 1767.78125 C 1458.121094 1776.941406 1440.851562 1808.488281 1440.011719 1839.460938 C 1439.210938 1869.238281 1451.820312 1898.71875 1472.660156 1919.789062 C 1477.640625 1924.820312 1483.121094 1929.359375 1488.949219 1933.359375 C 1492.160156 1935.570312 1495.589844 1937.410156 1498.78125 1939.640625 C 1505.351562 1944.230469 1511.671875 1949.179688 1517.980469 1954.101562 C 1534.941406 1967.300781 1552.28125 1980.429688 1568.109375 1994.980469 C 1572.808594 1999.289062 1579.820312 1992.300781 1575.121094 1987.96875 C 1562.160156 1976.058594 1548.058594 1965.25 1534.25 1954.351562 C 1526.769531 1948.441406 1519.261719 1942.570312 1511.640625 1936.839844 C 1506.148438 1932.710938 1500.46875 1929.191406 1494.78125 1925.371094 C 1472.730469 1910.558594 1457.078125 1886.71875 1451.769531 1860.761719 C 1446.03125 1832.78125 1453.25 1800.011719 1478.410156 1783.640625 C 1492.910156 1774.199219 1510.589844 1773.390625 1527.070312 1777.359375 C 1543.789062 1781.398438 1558.441406 1790.738281 1567.710938 1805.410156 C 1571.109375 1810.789062 1579.691406 1805.820312 1576.269531 1800.410156 Z M 1576.269531 1800.410156 "/>
<path fill-rule="nonzero" fill="rgb(0%, 44.309998%, 73.631287%)" fill-opacity="1" d="M 1549.449219 1825.460938 C 1548.03125 1825.460938 1546.769531 1826.371094 1546.320312 1827.71875 L 1531.941406 1870.839844 L 1530.449219 1866.371094 C 1529.441406 1863.359375 1525.191406 1863.359375 1524.179688 1866.371094 L 1519.320312 1880.960938 L 1497.269531 1880.960938 C 1495.441406 1880.960938 1493.960938 1882.429688 1493.960938 1884.261719 C 1493.960938 1886.078125 1495.441406 1887.558594 1497.269531 1887.558594 L 1521.699219 1887.558594 C 1523.128906 1887.558594 1524.390625 1886.648438 1524.839844 1885.308594 L 1527.320312 1877.859375 L 1528.808594 1882.328125 C 1529.808594 1885.339844 1534.070312 1885.339844 1535.070312 1882.328125 L 1549.449219 1839.210938 L 1562.171875 1877.371094 L 1581 1933.859375 C 1582 1936.871094 1586.261719 1936.871094 1587.269531 1933.859375 L 1617.171875 1844.171875 L 1625.921875 1870.441406 C 1626.929688 1873.449219 1631.191406 1873.449219 1632.191406 1870.441406 L 1637.96875 1853.089844 L 1645.738281 1876.390625 C 1646.191406 1877.730469 1647.449219 1878.640625 1648.878906 1878.640625 L 1733.269531 1878.640625 C 1735.089844 1878.640625 1736.570312 1877.160156 1736.570312 1875.339844 C 1736.570312 1873.519531 1735.089844 1872.039062 1733.269531 1872.039062 L 1651.25 1872.039062 L 1641.109375 1841.601562 C 1640.109375 1838.589844 1635.839844 1838.589844 1634.839844 1841.601562 L 1629.058594 1858.949219 L 1620.300781 1832.679688 C 1619.300781 1829.671875 1615.039062 1829.671875 1614.03125 1832.679688 L 1584.128906 1922.371094 L 1568.441406 1875.289062 L 1552.589844 1827.71875 C 1552.140625 1826.371094 1550.878906 1825.460938 1549.449219 1825.460938 Z M 1549.449219 1825.460938 "/>
<path fill-rule="nonzero" fill="rgb(0%, 61.131287%, 91.40625%)" fill-opacity="1" d="M 1448.78125 2036.871094 C 1422.558594 2016.109375 1384.738281 2020.519531 1363.988281 2046.738281 L 1237.320312 2206.820312 C 1216.570312 2233.042969 1220.980469 2270.859375 1247.199219 2291.609375 C 1273.429688 2312.359375 1311.238281 2307.953125 1331.988281 2281.730469 L 1458.660156 2121.65625 C 1479.410156 2095.433594 1475.011719 2057.621094 1448.78125 2036.871094 Z M 1448.78125 2036.871094 "/>
<path fill-rule="nonzero" fill="rgb(87.109375%, 95.3125%, 99.609375%)" fill-opacity="1" d="M 1717.128906 1697.75 C 1763.941406 1734.78125 1794.109375 1788.890625 1801.019531 1848.179688 C 1807.929688 1907.46875 1791 1967.070312 1753.960938 2013.871094 C 1716.929688 2060.679688 1662.808594 2090.855469 1603.519531 2097.761719 C 1544.238281 2104.667969 1484.640625 2087.742188 1437.828125 2050.699219 C 1391.03125 2013.660156 1360.851562 1959.550781 1353.941406 1900.269531 C 1347.039062 1840.980469 1363.960938 1781.378906 1401 1734.570312 C 1438.039062 1687.769531 1492.160156 1657.589844 1551.441406 1650.691406 C 1610.730469 1643.78125 1670.328125 1660.710938 1717.128906 1697.75 Z M 1683.679688 1740.019531 C 1648.089844 1711.851562 1602.769531 1698.980469 1557.679688 1704.230469 C 1512.589844 1709.480469 1471.441406 1732.429688 1443.269531 1768.019531 C 1415.109375 1803.621094 1402.230469 1848.941406 1407.488281 1894.03125 C 1412.738281 1939.109375 1435.691406 1980.269531 1471.28125 2008.429688 C 1506.878906 2036.601562 1552.199219 2049.46875 1597.289062 2044.21875 C 1642.371094 2038.96875 1683.53125 2016.019531 1711.691406 1980.429688 C 1739.859375 1944.828125 1752.730469 1899.5 1747.480469 1854.421875 C 1742.230469 1809.328125 1719.28125 1768.179688 1683.679688 1740.019531 Z M 1683.679688 1740.019531 "/>
<path fill-rule="nonzero" fill="rgb(1.177979%, 49.021912%, 74.021912%)" fill-opacity="1" d="M 1738.320312 1670.96875 C 1792.230469 1713.621094 1826.980469 1775.949219 1834.941406 1844.230469 C 1842.890625 1912.511719 1823.390625 1981.160156 1780.738281 2035.058594 C 1738.078125 2088.96875 1675.761719 2123.722656 1607.480469 2131.675781 C 1539.191406 2139.632812 1470.550781 2120.136719 1416.640625 2077.480469 C 1362.738281 2034.820312 1327.980469 1972.5 1320.03125 1904.21875 C 1312.070312 1835.941406 1331.570312 1767.289062 1374.230469 1713.390625 C 1416.878906 1659.480469 1479.210938 1624.730469 1547.488281 1616.769531 C 1615.769531 1608.820312 1684.410156 1628.308594 1738.320312 1670.96875 Z M 1699.800781 1719.648438 C 1658.800781 1687.210938 1606.601562 1672.390625 1554.671875 1678.441406 C 1502.75 1684.480469 1455.351562 1710.910156 1422.910156 1751.910156 C 1390.46875 1792.910156 1375.640625 1845.109375 1381.691406 1897.03125 C 1387.738281 1948.960938 1414.171875 1996.359375 1455.171875 2028.800781 C 1496.160156 2061.230469 1548.371094 2076.058594 1600.289062 2070.011719 C 1652.21875 2063.960938 1699.609375 2037.53125 1732.058594 1996.539062 C 1764.5 1955.539062 1779.320312 1903.339844 1773.269531 1851.410156 C 1767.21875 1799.488281 1740.789062 1752.089844 1699.800781 1719.648438 Z M 1699.800781 1719.648438 "/>
<path fill-rule="nonzero" fill="rgb(1.177979%, 49.021912%, 74.021912%)" fill-opacity="1" d="M 1420.851562 2186.480469 C 1419.359375 2189.101562 1417.640625 2191.644531 1415.710938 2194.085938 L 1289.871094 2353.117188 C 1269.25 2379.167969 1231.679688 2383.546875 1205.628906 2362.929688 L 1187.339844 2348.460938 C 1161.289062 2327.84375 1156.921875 2290.273438 1177.53125 2264.222656 L 1303.378906 2105.191406 C 1305.308594 2102.75 1307.390625 2100.5 1309.589844 2098.441406 Z M 1420.851562 2186.480469 "/>
</svg>
